<?xml version="1.0" standalone="no"?>
<!DOCTYPE svg PUBLIC "-//W3C//DTD SVG 1.1//EN" "http://www.w3.org/Graphics/SVG/1.1/DTD/svg11.dtd" >
<svg>
<metadata>
Created by FontForge 20090622 at Fri Dec 25 20:35:53 2015
 By www
Copyright (c) 2009-2011 by Eduardo Manso. All rights reserved.
</metadata>
<defs>
<font id="GeogrotesqueW01-Semibold" horiz-adv-x="562" >
  <font-face 
    font-family="GeogrotesqueW01-Semibold"
    font-weight="600"
    font-stretch="normal"
    units-per-em="1000"
    panose-1="2 11 7 0 0 0 0 0 0 0"
    ascent="750"
    descent="-250"
    x-height="498"
    cap-height="680"
    bbox="-58 -218 1167 899"
    underline-thickness="50"
    underline-position="-100"
    unicode-range="U+0002-U+2122"
  />
<missing-glyph horiz-adv-x="194" 
 />
    <glyph glyph-name=".notdef" horiz-adv-x="194" 
 />
    <glyph glyph-name=".null" horiz-adv-x="0" 
 />
    <glyph glyph-name="uni000D" unicode="&#xd;" horiz-adv-x="0" 
 />
    <glyph glyph-name="glyph223" horiz-adv-x="0" 
 />
    <glyph glyph-name="glyph223" horiz-adv-x="0" 
 />
    <glyph glyph-name="uni0002" horiz-adv-x="0" 
 />
    <glyph glyph-name="uni0009" unicode="&#x9;" horiz-adv-x="194" 
 />
    <glyph glyph-name="uni000A" unicode="&#xa;" horiz-adv-x="0" 
 />
    <glyph glyph-name="space" unicode=" " horiz-adv-x="194" 
 />
    <glyph glyph-name="exclam" unicode="!" horiz-adv-x="277" 
d="M194 207q-1 -14 -5.5 -19.5t-18.5 -5.5h-62q-14 0 -18.5 5.5t-5.5 19.5l-14 183v264q0 26 25 26h88q14 0 19 -6t5 -20v-264zM205 25q0 -14 -5 -19.5t-19 -5.5h-87q-14 0 -19 5.5t-5 19.5v81q0 14 5 19.5t19 5.5h87q14 0 19 -5.5t5 -19.5v-81z" />
    <glyph glyph-name="quotedbl" unicode="&#x22;" horiz-adv-x="427" 
d="M178 491q0 -25 -24 -25h-59q-14 0 -18.5 5.5t-5.5 19.5l-11 163q-1 26 24 26h81q24 0 23 -26zM356 491q0 -14 -5 -19.5t-19 -5.5h-58q-14 0 -19 5.5t-6 19.5l-10 163q-1 26 24 26h80q25 0 24 -26z" />
    <glyph glyph-name="numbersign" unicode="#" horiz-adv-x="678" 
d="M161 272l21 75h-42q-26 0 -26 24v44q0 23 26 23h69l22 78q6 26 31 26h59q14 0 17.5 -7.5t0.5 -18.5l-23 -78h123l22 78q4 12 10.5 19t20.5 7h59q14 0 17.5 -7.5t0.5 -18.5l-22 -78h39q25 0 25 -23v-44q0 -24 -25 -24h-66l-21 -75h39q26 0 26 -23v-44q0 -25 -26 -25h-66
l-22 -78q-4 -13 -10 -19t-20 -6h-59q-25 0 -18 25l22 78h-123l-22 -78q-4 -13 -10 -19t-20 -6h-60q-24 0 -17 25l22 78h-43q-25 0 -25 25v44q0 23 25 23h69zM268 272h123l22 75h-123z" />
    <glyph glyph-name="dollar" unicode="$" horiz-adv-x="536" 
d="M343 464q0 23 -20.5 32t-52.5 9t-52 -9t-20 -32v-11q0 -15 10 -23t21 -12l144 -51q47 -17 71.5 -42.5t24.5 -61.5v-51q0 -39 -30.5 -74t-99.5 -49v-63q0 -26 -23 -26h-84q-24 0 -24 26v61q-38 6 -65 18.5t-44 29t-24.5 36.5t-7.5 41v23q0 23 23 23h74q23 0 23 -23v-17
q0 -23 23 -32.5t57 -9.5t57.5 9.5t23.5 32.5v17q0 13 -10.5 21t-34.5 17l-145 53q-14 5 -28 15.5t-25.5 24t-18.5 30.5t-7 36v32q0 20 6.5 40t22 37.5t40 31t60.5 19.5v62q0 26 24 26h84q23 0 23 -26v-63q34 -7 57.5 -20.5t38 -30.5t21 -37t6.5 -39v-19q0 -13 -4.5 -18
t-18.5 -5h-74q-22 0 -22 23v19z" />
    <glyph glyph-name="percent" unicode="%" horiz-adv-x="869" 
d="M67 576q0 51 36 81.5t120 30.5t120 -30.5t36 -81.5v-98q0 -51 -36 -81.5t-120 -30.5t-120 30.5t-36 81.5v98zM272 572q0 17 -13 23.5t-36 6.5t-36 -6.5t-13 -23.5v-90q0 -31 49 -31t49 31v90zM694 197q0 30 -48 30q-49 0 -49 -30v-90q0 -17 13 -24t36 -7t35.5 7t12.5 24
v90zM490 200q0 51 36 81.5t120 30.5t120 -30.5t36 -81.5v-98q0 -51 -36 -81.5t-120 -30.5t-120 30.5t-36 81.5v98zM335 26q-7 -14 -14.5 -20t-21.5 -6h-70q-11 0 -13.5 9t1.5 17l321 628q5 11 13.5 18.5t22.5 7.5h69q12 0 14.5 -7.5t-2.5 -18.5z" />
    <glyph glyph-name="ampersand" unicode="&#x26;" horiz-adv-x="696" 
d="M638 404q13 0 19 -5t6 -19v-59q0 -25 -25 -25h-59v-141q0 -32 -12 -61t-42 -52t-80 -36.5t-126 -13.5t-125.5 13t-79 35t-41 51t-11.5 60v89q0 38 18 67.5t66 46.5q-42 14 -58.5 39.5t-16.5 64.5v71q0 31 10 60t35 51t68.5 35t109.5 13q67 0 110.5 -13.5t69 -36.5
t35.5 -52.5t10 -60.5v-32q0 -25 -23 -25h-84q-24 0 -24 25v13q0 37 -21.5 55.5t-71.5 18.5q-49 0 -70.5 -18.5t-21.5 -55.5v-28q0 -74 98 -74h337zM321 100q127 0 127 74v122h-156q-98 0 -98 -73v-49q0 -74 127 -74z" />
    <glyph glyph-name="quotesingle" unicode="'" horiz-adv-x="248" 
d="M178 491q-1 -25 -24 -25h-59q-14 0 -18.5 5.5t-5.5 19.5l-11 163q-1 26 24 26h81q24 0 23 -26z" />
    <glyph glyph-name="parenleft" unicode="(" horiz-adv-x="357" 
d="M62 560q0 68 51.5 108t162.5 40h9q25 0 25 -25v-58q0 -25 -25 -25h-9q-42 0 -60.5 -13t-18.5 -41v-602q0 -28 18.5 -41t60.5 -13h9q25 0 25 -25v-58q0 -25 -25 -25h-9q-111 0 -162.5 40t-51.5 108v630z" />
    <glyph glyph-name="parenright" unicode=")" horiz-adv-x="357" 
d="M295 -70q0 -68 -52 -108t-162 -40h-10q-25 0 -25 25v58q0 25 25 25h10q42 0 60 13t18 41v602q0 28 -18 41t-60 13h-10q-25 0 -25 25v58q0 25 25 25h10q110 0 162 -40t52 -108v-630z" />
    <glyph glyph-name="asterisk" unicode="*" horiz-adv-x="541" 
d="M250 286q-24 0 -23 26l8 121l-106 -69q-22 -15 -34 9l-20 39q-6 12 -4 19.5t15 13.5l104 48l-104 49q-23 11 -11 33l20 38q13 23 34 9l107 -69l-9 130q-1 14 4.5 19.5t19.5 5.5h43q25 0 24 -25l-10 -127l104 66q22 14 34 -8l20 -39q12 -22 -11 -33l-104 -49l104 -48
q14 -6 15.5 -14t-4.5 -19l-20 -40q-12 -23 -34 -8l-103 65l9 -117q1 -26 -24 -26h-44z" />
    <glyph glyph-name="plus" unicode="+" horiz-adv-x="560" 
d="M226 284h-142q-25 0 -25 25v59q0 14 6 19t19 5h142v142q0 26 23 26h59q25 0 25 -26v-142h142q14 0 20 -5t6 -19v-59q0 -25 -26 -25h-142v-141q0 -25 -25 -25h-59q-23 0 -23 25v141z" />
    <glyph glyph-name="comma" unicode="," horiz-adv-x="266" 
d="M75 106q0 14 5 19.5t19 5.5h86q23 0 23 -25v-74q0 -114 -144 -148q-13 -3 -19.5 0t-11.5 16l-20 56q-8 23 16 31q27 9 36.5 21t9.5 31v67z" />
    <glyph glyph-name="hyphen" unicode="-" horiz-adv-x="436" 
d="M352 342q13 0 19 -5t6 -19v-59q0 -24 -25 -24h-268q-25 0 -25 24v59q0 14 6 19t19 5h268z" />
    <glyph glyph-name="period" unicode="." horiz-adv-x="250" 
d="M192 25q0 -14 -5 -19.5t-19 -5.5h-85q-25 0 -25 25v81q0 25 25 25h85q14 0 19 -5.5t5 -19.5v-81z" />
    <glyph glyph-name="slash" unicode="/" horiz-adv-x="366" 
d="M154 -122q-4 -14 -9.5 -20t-19.5 -6h-92q-25 0 -19 26l199 795q3 13 9 19.5t20 6.5h91q25 0 19 -26z" />
    <glyph glyph-name="zero" unicode="0" 
d="M48 525q0 31 12 60.5t39 52.5t71.5 36.5t110.5 13.5q65 0 109.5 -13.5t72 -36.5t39.5 -52.5t12 -60.5v-370q0 -32 -12 -61t-39.5 -52t-72 -36.5t-109.5 -13.5q-66 0 -110.5 13.5t-71.5 36.5t-39 52t-12 61v370zM379 501q0 75 -98 75t-98 -75v-322q0 -75 98 -75t98 75v322
z" />
    <glyph glyph-name="one" unicode="1" 
d="M337 687q8 2 16 -2.5t8 -21.5v-551h131q14 0 19.5 -5t5.5 -19v-63q0 -25 -25 -25h-402q-25 0 -25 25v63q0 14 6 19t19 5h136v440l-135 -24q-26 -5 -26 21v66q0 13 7 19t19 8z" />
    <glyph glyph-name="two" unicode="2" 
d="M490 112q13 0 19 -5t6 -19v-63q0 -25 -25 -25h-400q-26 0 -26 25v184q0 21 6 35.5t15.5 24.5t22 17t24.5 12l205 86q14 5 27 17.5t13 40.5v61q0 75 -98 75q-97 0 -97 -75v-39q0 -25 -23 -25h-83q-25 0 -25 25v61q0 31 11 60.5t37.5 52.5t70.5 36.5t109 13.5t109.5 -13.5
t71.5 -36.5t39 -52.5t12 -60.5v-79q0 -36 -9 -62t-23 -44t-31 -29t-32 -17l-169 -70q-22 -9 -34.5 -19.5t-12.5 -36.5v-56h290z" />
    <glyph glyph-name="three" unicode="3" 
d="M269 404q98 0 98 74v28q0 37 -21 55.5t-70 18.5q-50 0 -71.5 -18.5t-21.5 -55.5v-13q0 -25 -25 -25h-83q-14 0 -18.5 6t-4.5 19v32q0 31 10 60.5t35.5 52.5t69 36.5t110.5 13.5q66 0 109.5 -13t68.5 -35t35 -51t10 -60v-71q0 -39 -16.5 -64.5t-58.5 -39.5
q48 -17 66 -46.5t18 -67.5v-89q0 -31 -11 -60t-37.5 -51t-70.5 -35t-111 -13t-111.5 13.5t-71.5 36.5t-38 52t-11 61v32q0 13 5 19t19 6h83q14 0 19 -6t5 -19v-13q0 -74 100 -74q98 0 98 74v49q0 73 -98 73h-77q-25 0 -25 25v59q0 14 5.5 19t19.5 5h68z" />
    <glyph glyph-name="four" unicode="4" 
d="M172 297h191v357q0 14 5 20t19 6h87q14 0 19 -6t5 -20v-628q0 -14 -5 -20t-19 -6h-87q-14 0 -19 6t-5 20v159h-305q-14 0 -19.5 5t-5.5 19v61q0 8 1 12.5t3 10.5l113 361q4 13 10 19.5t20 6.5h87q26 0 18 -26z" />
    <glyph glyph-name="five" unicode="5" 
d="M466 680q14 0 20 -5t6 -19v-63q0 -25 -26 -25h-254v-131h68q64 0 108.5 -13t72 -34.5t39.5 -50.5t12 -61v-124q0 -32 -11 -61t-37.5 -52t-71 -36.5t-111.5 -13.5t-111.5 13.5t-71 36.5t-37.5 52t-11 61v32q0 13 5 19t19 6h83q25 0 25 -25v-12q0 -75 97 -75q98 0 98 75v85
q0 70 -98 70h-179q-23 0 -23 26v299q0 26 23 26h366z" />
    <glyph glyph-name="six" unicode="6" 
d="M55 526q0 30 10.5 59.5t36.5 52t69.5 36.5t108.5 14t108 -14t68.5 -36.5t35.5 -52t10 -59.5v-26q0 -25 -25 -25h-83q-14 0 -18.5 5.5t-4.5 19.5v7q0 35 -21 54t-70 19t-70.5 -19t-21.5 -54v-122q20 14 47.5 22.5t64.5 8.5q57 0 97 -14t65 -36.5t36 -52.5t11 -61v-97
q0 -32 -11 -61t-37.5 -52t-70 -36.5t-109.5 -13.5q-65 0 -108.5 13.5t-69.5 36.5t-37 52t-11 61v371zM375 233q0 38 -22 56t-72 18q-93 0 -93 -68v-64q0 -38 22 -56.5t71 -18.5q50 0 72 18.5t22 56.5v58z" />
    <glyph glyph-name="seven" unicode="7" 
d="M502 680q13 0 19 -5t6 -19v-61q0 -8 -5 -20l-242 -549q-5 -11 -11.5 -18.5t-20.5 -7.5h-98q-29 0 -17 26l241 542h-307q-25 0 -25 25v63q0 14 6 19t19 5h435z" />
    <glyph glyph-name="eight" unicode="8" 
d="M65 525q0 31 9 60.5t33 52.5t66 36.5t108 13.5q65 0 107 -13.5t66 -36.5t33 -52.5t9 -60.5v-66q0 -37 -17.5 -63.5t-57.5 -42.5q86 -31 86 -107v-91q0 -32 -11 -61t-37 -52t-69.5 -36.5t-108.5 -13.5q-66 0 -109.5 13.5t-69.5 36.5t-36.5 52t-10.5 61v91q0 76 85 107
q-39 16 -57 42.5t-18 63.5v66zM374 225q0 38 -22 55.5t-71 17.5q-50 0 -71.5 -17.5t-21.5 -55.5v-50q0 -38 21.5 -56.5t71.5 -18.5q49 0 71 18.5t22 56.5v50zM365 505q0 38 -18 56.5t-66 18.5t-66 -18.5t-18 -56.5v-25q0 -38 18 -56.5t66 -18.5t66 18.5t18 56.5v25z" />
    <glyph glyph-name="nine" unicode="9" 
d="M507 154q0 -30 -10.5 -59.5t-36.5 -52t-69.5 -36.5t-108.5 -14t-108 14t-68.5 36.5t-35.5 52t-10 59.5v26q0 25 25 25h83q23 0 23 -25v-7q0 -35 20.5 -54t70.5 -19q49 0 70 19t21 54v121q-19 -14 -46.5 -22t-64.5 -8q-57 0 -97 14t-64.5 36.5t-36 52t-11.5 61.5v97
q0 31 11 60.5t37.5 52.5t70 36.5t109.5 13.5q65 0 108.5 -13.5t69.5 -36.5t37 -52.5t11 -60.5v-371zM373 506q0 37 -22 55.5t-70 18.5q-50 0 -72.5 -18.5t-22.5 -56.5v-58q0 -38 22.5 -56t72.5 -18q48 0 70 18t22 55v60z" />
    <glyph glyph-name="colon" unicode=":" horiz-adv-x="250" 
d="M192 25q0 -14 -5 -19.5t-19 -5.5h-85q-25 0 -25 25v81q0 25 25 25h85q14 0 19 -5.5t5 -19.5v-81zM192 391q0 -13 -5 -19t-19 -6h-85q-25 0 -25 25v82q0 25 25 25h85q14 0 19 -5.5t5 -19.5v-82z" />
    <glyph glyph-name="semicolon" unicode=";" horiz-adv-x="290" 
d="M232 391q0 -25 -23 -25h-86q-25 0 -25 25v82q0 25 25 25h86q23 0 23 -25v-82zM98 106q0 25 25 25h86q23 0 23 -25v-74q0 -114 -144 -148q-13 -3 -20 0t-12 16l-19 56q-8 23 16 31q27 10 36 21.5t9 30.5v67z" />
    <glyph glyph-name="less" unicode="&#x3c;" horiz-adv-x="523" 
d="M187 339l251 -96q11 -5 18 -9.5t7 -18.5v-79q0 -14 -6 -21.5t-19 -2.5l-356 154q-10 5 -16.5 10t-6.5 19v88q0 14 6.5 19t16.5 10l356 154q13 5 19 -2.5t6 -21.5v-79q0 -14 -7 -18.5t-18 -9.5z" />
    <glyph glyph-name="equal" unicode="=" horiz-adv-x="581" 
d="M496 478q25 0 25 -24v-60q0 -14 -5.5 -19t-19.5 -5h-412q-13 0 -19 5t-6 19v60q0 24 25 24h412zM496 273q25 0 25 -23v-60q0 -25 -25 -25h-412q-25 0 -25 25v60q0 23 25 23h412z" />
    <glyph glyph-name="greater" unicode="&#x3e;" horiz-adv-x="523" 
d="M84 434q-11 5 -18 10t-7 18v80q0 14 6.5 22t18.5 3l357 -154q9 -4 15.5 -9t6.5 -18v-94q0 -14 -6.5 -18.5t-15.5 -8.5l-357 -154q-12 -5 -18.5 3t-6.5 21v81q0 14 7 18.5t18 9.5l252 94z" />
    <glyph glyph-name="question" unicode="?" horiz-adv-x="565" 
d="M187 275q0 21 5.5 35.5t14.5 25t20 17t23 12.5l92 47q12 7 25 20t13 41v30q0 75 -99 75t-99 -75v-39q0 -25 -23 -25h-83q-25 0 -25 25v61q0 31 11.5 60.5t38.5 52.5t71 36.5t109 13.5t109.5 -13.5t72 -36.5t39.5 -52.5t12 -60.5v-47q0 -36 -9 -62t-22.5 -44.5t-30 -30
t-31.5 -18.5l-57 -26q-21 -10 -31.5 -21t-10.5 -35v-35q0 -14 -5 -19t-18 -5h-88q-13 0 -18.5 5t-5.5 19v69zM322 25q0 -25 -23 -25h-88q-24 0 -24 25v81q0 25 24 25h88q23 0 23 -25v-81z" />
    <glyph glyph-name="at" unicode="@" horiz-adv-x="954" 
d="M477 -150q-132 0 -212 19.5t-123.5 51.5t-57.5 72.5t-14 82.5v351q0 42 14 82t57.5 72t123.5 51.5t212 19.5t212 -19.5t123.5 -51.5t58 -72t14.5 -82v-234q0 -35 -10 -64t-32 -50.5t-57.5 -33.5t-86.5 -12q-62 0 -96.5 18t-51.5 44q-9 -8 -24 -19t-34.5 -20.5t-44.5 -16
t-55 -6.5q-67 0 -95.5 32t-28.5 89v12t1 13l12 133q6 69 40.5 107.5t100.5 38.5q41 0 76.5 -16.5t58.5 -32.5l3 16q2 13 7.5 19t19.5 6h73q24 0 21 -25l-21 -206q-2 -18 -1.5 -34.5t5 -29t14.5 -20t28 -7.5q33 0 42 24.5t9 58.5v210q0 29 -11.5 52.5t-42.5 39.5t-85.5 24.5
t-141.5 8.5t-141.5 -8.5t-85 -25t-42 -39.5t-11.5 -52v-339q0 -29 11.5 -52.5t42 -40t85 -25t141.5 -8.5h175q26 0 26 -25v-56q0 -25 -26 -25h-175zM399 201q-2 -20 8 -34t42 -14q26 0 48 9t34 15v6l13 127q-14 10 -34 21.5t-46 11.5q-33 0 -44 -18.5t-13 -38.5z" />
    <glyph glyph-name="A" unicode="A" horiz-adv-x="553" 
d="M320 680q25 0 32 -25l186 -630q8 -25 -18 -25h-90q-13 0 -19 6.5t-10 18.5l-35 122h-186l-35 -122q-4 -12 -10 -18.5t-20 -6.5h-81q-27 0 -19 25l187 630q4 13 10.5 19t20.5 6h87zM303 365q-5 15 -10 43.5t-9 58l-7 52.5t-3 28q-1 -5 -4 -28t-7.5 -51.5t-10 -57
t-9.5 -44.5l-34 -112h127z" />
    <glyph glyph-name="B" unicode="B" horiz-adv-x="594" 
d="M94 0q-14 0 -19 6t-5 20v628q0 14 5 20t19 6h183q68 0 114 -12t74.5 -32t41 -48t12.5 -59v-59q0 -37 -18 -65.5t-57 -46.5q51 -18 78.5 -48.5t27.5 -72.5v-79q0 -32 -12.5 -60.5t-41 -50t-74.5 -34.5t-114 -13h-214zM205 296v-188h103q51 0 80 18t29 56v45q0 32 -29 50.5
t-80 18.5h-103zM205 572v-174h75q48 0 76.5 18.5t28.5 56.5v35q0 38 -28.5 51t-79.5 13h-72z" />
    <glyph glyph-name="C" unicode="C" horiz-adv-x="569" 
d="M529 155q0 -32 -11.5 -61t-38.5 -52t-72 -36.5t-113 -13.5t-113 13.5t-72 36.5t-38.5 52t-11.5 61v370q0 31 11.5 60.5t38.5 52.5t72 36.5t113 13.5t113 -13.5t72 -36.5t38.5 -52.5t11.5 -60.5v-48q0 -25 -23 -25h-83q-25 0 -25 25v24q0 75 -102 75q-101 0 -101 -75v-322
q0 -75 101 -75q102 0 102 75v38q0 25 25 25h83q23 0 23 -25v-62z" />
    <glyph glyph-name="D" unicode="D" horiz-adv-x="615" 
d="M91 0q-12 0 -16.5 6.5t-4.5 19.5v628q0 14 5 20t19 6h218q68 0 114.5 -13.5t75.5 -36.5t41.5 -52.5t12.5 -60.5v-354q0 -32 -12.5 -61t-41.5 -52t-75.5 -36.5t-114.5 -13.5h-221zM205 568v-456h107q51 0 80 18.5t29 56.5v306q0 38 -29 56.5t-80 18.5h-107z" />
    <glyph glyph-name="E" unicode="E" horiz-adv-x="512" 
d="M94 0q-14 0 -19 6t-5 20v628q0 14 5 20t19 6h342q13 0 19 -5t6 -19v-63q0 -25 -25 -25h-231v-162h214q14 0 20 -5t6 -19v-60q0 -24 -26 -24h-214v-186h241q14 0 19.5 -5t5.5 -19v-63q0 -25 -25 -25h-352z" />
    <glyph glyph-name="F" unicode="F" horiz-adv-x="518" 
d="M460 680q13 0 19 -5t6 -19v-63q0 -25 -25 -25h-255v-162h238q14 0 19.5 -5t5.5 -19v-64q0 -25 -25 -25h-238v-267q0 -14 -5 -20t-19 -6h-87q-14 0 -19 6t-5 20v628q0 14 5 20t19 6h366z" />
    <glyph glyph-name="G" unicode="G" horiz-adv-x="581" 
d="M504 357q13 0 19 -5t6 -19v-178q0 -32 -11.5 -61t-38.5 -52t-72 -36.5t-113 -13.5t-113 13.5t-72 36.5t-38.5 52t-11.5 61v370q0 31 11.5 60.5t38.5 52.5t72 36.5t113 13.5t113 -13.5t72 -36.5t38.5 -52.5t11.5 -60.5v-40q0 -25 -23 -25h-83q-25 0 -25 25v16
q0 75 -102 75q-101 0 -101 -75v-322q0 -75 101 -75q102 0 102 74v67h-98q-14 0 -20 5t-6 19v64q0 14 6 19t20 5h204z" />
    <glyph glyph-name="H" unicode="H" horiz-adv-x="626" 
d="M205 405h216v249q0 14 5 20t19 6h87q14 0 19 -6t5 -20v-628q0 -14 -5 -20t-19 -6h-87q-14 0 -19 6t-5 20v267h-216v-267q0 -14 -5 -20t-19 -6h-87q-14 0 -19 6t-5 20v628q0 14 5 20t19 6h87q14 0 19 -6t5 -20v-249z" />
    <glyph glyph-name="I" unicode="I" horiz-adv-x="274" 
d="M205 26q0 -14 -5 -20t-19 -6h-87q-14 0 -19 6t-5 20v628q0 14 5 20t19 6h87q14 0 19 -6t5 -20v-628z" />
    <glyph glyph-name="J" unicode="J" horiz-adv-x="515" 
d="M149 179q0 -75 86 -75q45 0 62.5 18.5t17.5 56.5v475q0 26 24 26h87q14 0 19 -6t5 -20v-499q0 -32 -10 -61t-34.5 -52t-66 -36.5t-104.5 -13.5t-105 13.5t-67.5 36.5t-36 52t-10.5 61v60q0 25 25 25h84q14 0 19 -5.5t5 -19.5v-36z" />
    <glyph glyph-name="K" unicode="K" horiz-adv-x="584" 
d="M570 25q7 -9 4 -17t-17 -8h-111q-13 0 -21 8t-15 17l-188 262h-17v-262q0 -13 -5 -19t-19 -6h-87q-14 0 -19 6t-5 19v630q0 13 5 19t19 6h87q14 0 19 -6t5 -19v-269h16l178 269q7 11 16.5 18t23.5 7h93q14 0 16.5 -7.5t-4.5 -17.5l-209 -309z" />
    <glyph glyph-name="L" unicode="L" horiz-adv-x="477" 
d="M205 112h223q13 0 19 -5t6 -19v-63q0 -25 -25 -25h-337q-21 0 -21 26v628q0 14 5 20t19 6h87q14 0 19 -6t5 -20v-542z" />
    <glyph glyph-name="M" unicode="M" horiz-adv-x="746" 
d="M677 25q0 -13 -5 -19t-19 -6h-83q-14 0 -19 6t-5 19v380q0 -1 -3.5 -11.5l-8 -25l-9 -29.5t-8.5 -25l-76 -186q-5 -12 -12.5 -18.5t-20.5 -6.5h-71q-13 0 -20 7t-12 18l-85 201q-4 8 -8 19.5t-7 22.5l-5.5 20t-2.5 12v-378q0 -13 -5 -19t-19 -6h-79q-14 0 -19 6t-5 19
v630q0 13 5 19t19 6h79q10 0 14.5 -3.5t7.5 -10.5l153 -349q5 -11 9 -22.5l8 -22.5l8 -25l8 23q4 10 8.5 22.5t9.5 23.5l148 352q5 12 23 12h83q14 0 19 -6t5 -19v-630z" />
    <glyph glyph-name="N" unicode="N" horiz-adv-x="625" 
d="M556 25q0 -13 -5 -19t-19 -6h-79q-10 0 -14.5 2.5t-8.5 9.5l-193 331q-20 34 -29.5 56.5t-10.5 24.5v-399q0 -13 -5 -19t-19 -6h-79q-14 0 -19 6t-5 19v630q0 13 5 19t19 6h79q15 0 21 -10l201 -345l12 -23t11 -23q5 -12 11 -24v400q0 13 5 19t19 6h79q14 0 19 -6t5 -19
v-630z" />
    <glyph glyph-name="O" unicode="O" horiz-adv-x="605" 
d="M59 525q0 31 12.5 60.5t41 52.5t75 36.5t114.5 13.5t114.5 -13.5t75 -36.5t41 -52.5t12.5 -60.5v-370q0 -32 -12.5 -61t-41 -52t-75 -36.5t-114.5 -13.5t-114.5 13.5t-75 36.5t-41 52t-12.5 61v370zM410 501q0 38 -28.5 56.5t-79.5 18.5t-79 -18.5t-28 -56.5v-322
q0 -38 28 -56.5t79 -18.5t79.5 18.5t28.5 56.5v322z" />
    <glyph glyph-name="P" unicode="P" horiz-adv-x="580" 
d="M205 241v-215q0 -14 -5 -20t-19 -6h-87q-14 0 -19 6t-5 20v628q0 14 5 20t19 6h210q68 0 114 -13.5t74.5 -36.5t41 -52.5t12.5 -60.5v-113q0 -32 -12.5 -61t-41 -52t-74.5 -36.5t-114 -13.5h-99zM205 568v-215h99q51 0 79.5 18.5t28.5 55.5v66q0 38 -28.5 56.5
t-79.5 18.5h-99z" />
    <glyph glyph-name="Q" unicode="Q" horiz-adv-x="604" 
d="M545 155q0 -25 -7.5 -48.5t-24 -43.5t-43 -35.5t-64.5 -24.5l107 -95q20 -18 3 -35l-44 -47q-8 -8 -17 -9t-17 7l-184 171q-54 4 -91 19t-60.5 37t-33.5 48.5t-10 55.5v370q0 31 12.5 60.5t41 52.5t75 36.5t114.5 13.5t114.5 -13.5t75 -36.5t41 -52.5t12.5 -60.5v-370z
M195 176q0 -38 28 -56.5t79 -18.5t79.5 18.5t28.5 56.5v328q0 38 -28.5 56.5t-79.5 18.5t-79 -18.5t-28 -56.5v-328z" />
    <glyph glyph-name="R" unicode="R" horiz-adv-x="600" 
d="M205 259v-233q0 -14 -5 -20t-19 -6h-87q-14 0 -19 6t-5 20v628q0 14 5 20t19 6h210q68 0 114 -13.5t74.5 -36.5t41 -52.5t12.5 -60.5v-95q0 -45 -25 -83.5t-85 -60.5l108 -252q5 -12 -2 -19t-21 -7h-88q-11 0 -15.5 7t-9.5 19l-98 233h-6h-99zM205 568v-197h99
q51 0 79.5 18.5t28.5 56.5v47q0 38 -28.5 56.5t-79.5 18.5h-99z" />
    <glyph glyph-name="S" unicode="S" horiz-adv-x="572" 
d="M389 507q0 72 -97 72q-98 0 -98 -72v-15q0 -26 14.5 -37.5t26.5 -16.5l174 -62q51 -18 84.5 -53t33.5 -91v-77q0 -32 -12 -61t-40 -52t-73.5 -36.5t-112.5 -13.5t-112.5 13.5t-73.5 36.5t-40.5 52t-12.5 61v63q0 26 24 26h84q14 0 19 -6t5 -20v-45q0 -37 27.5 -54.5
t78.5 -17.5t78.5 17.5t27.5 54.5v32q0 15 -7 26.5t-18.5 19.5t-27 15t-32.5 13l-155 58q-18 7 -34.5 19.5t-29 29.5t-20 37t-7.5 43v59q0 31 11 60.5t37 52.5t69.5 36.5t109.5 13.5t110 -13.5t71 -36.5t38.5 -52.5t11.5 -60.5v-41q0 -25 -25 -25h-84q-23 0 -23 25v23z" />
    <glyph glyph-name="T" unicode="T" horiz-adv-x="493" 
d="M456 680q13 0 19 -5t6 -19v-63q0 -25 -25 -25h-142v-542q0 -14 -5 -20t-19 -6h-87q-25 0 -25 26v542h-142q-25 0 -25 25v63q0 14 5.5 19t19.5 5h420z" />
    <glyph glyph-name="U" unicode="U" horiz-adv-x="615" 
d="M200 179q0 -38 28 -56.5t79 -18.5t80 18.5t29 56.5v475q0 14 5 20t19 6h87q14 0 18.5 -6t4.5 -20v-499q0 -32 -12.5 -61t-41 -52t-75 -36.5t-114.5 -13.5t-114.5 13.5t-75 36.5t-41 52t-12.5 61v499q0 26 25 26h87q24 0 24 -26v-475z" />
    <glyph glyph-name="V" unicode="V" horiz-adv-x="553" 
d="M233 0q-14 0 -20.5 6t-10.5 19l-187 630q-8 25 19 25h95q13 0 19 -6.5t10 -18.5l97 -340q5 -20 10 -45.5t8 -47.5q4 -26 6 -52l8 52l8.5 47t10.5 45l97 341q4 12 10 18.5t20 6.5h87q26 0 18 -25l-186 -630q-7 -25 -32 -25h-87z" />
    <glyph glyph-name="W" unicode="W" horiz-adv-x="838" 
d="M580 315q3 -13 5.5 -28.5l5 -30t4 -26t1.5 -14.5q0 3 1.5 12.5l3.5 23t5.5 29.5l7.5 33l86 341q6 25 29 25h76q25 0 19 -25l-159 -630q-6 -25 -31 -25h-85q-22 0 -28 25l-88 348q-2 8 -4.5 22t-4.5 28t-3.5 25.5t-1.5 15.5q0 -4 -1.5 -16t-4 -26t-4.5 -28t-4 -21
l-88 -348q-6 -25 -31 -25h-85q-22 0 -28 25l-159 630q-6 25 19 25h89q23 0 29 -25l84 -341l6 -29t5 -27q3 -14 5 -28q1 10 4 23q2 11 5.5 26l8.5 35l86 341q3 12 9.5 18.5t20.5 6.5h81q14 0 20.5 -6.5t9.5 -18.5z" />
    <glyph glyph-name="X" unicode="X" horiz-adv-x="574" 
d="M546 25q5 -9 3 -17t-16 -8h-100q-14 0 -22 7.5t-14 17.5l-120 206l-109 -206q-5 -10 -13.5 -17.5t-22.5 -7.5h-94q-13 0 -14 9.5t4 19.5l181 322l-174 301q-7 11 -5.5 19.5t15.5 8.5h100q14 0 22 -7t15 -18l111 -192l104 192q13 25 36 25h93q13 0 15.5 -7t-3.5 -18
l-180 -306z" />
    <glyph glyph-name="Y" unicode="Y" horiz-adv-x="545" 
d="M256 427l5 -14.5t5.5 -16.5l4.5 -14.5t2 -7.5q0 1 2 7.5l4.5 14.5t5.5 16.5t6 14.5l106 228q5 11 10.5 18t18.5 7h86q13 0 18.5 -6.5t-0.5 -18.5l-189 -395v-235q0 -13 -5 -19t-19 -6h-87q-25 0 -25 25v219l-190 411q-5 11 -0.5 18t17.5 7h99q13 0 19 -7t11 -18z" />
    <glyph glyph-name="Z" unicode="Z" horiz-adv-x="497" 
d="M431 680q14 0 20 -5t6 -19v-62q0 -7 -2 -11.5t-4 -8.5l-256 -462h254q13 0 19 -5t6 -19v-63q0 -25 -25 -25h-391q-25 0 -25 25v63q0 6 1 10t3 7l257 463h-219q-25 0 -25 25v63q0 14 6 19t19 5h356z" />
    <glyph glyph-name="bracketleft" unicode="[" horiz-adv-x="394" 
d="M62 673q0 26 24 26h229q13 0 19 -5t6 -19v-63q0 -25 -25 -25h-118v-686h118q25 0 25 -25v-63q0 -14 -6 -19t-19 -5h-229q-24 0 -24 26v858z" />
    <glyph glyph-name="backslash" unicode="\" horiz-adv-x="366" 
d="M14 673q-6 26 19 26h92q14 0 20 -6.5t9 -19.5l198 -795q6 -26 -19 -26h-91q-14 0 -20 6t-9 20z" />
    <glyph glyph-name="bracketright" unicode="]" horiz-adv-x="394" 
d="M332 -185q0 -26 -24 -26h-228q-14 0 -20 5t-6 19v63q0 25 26 25h117v686h-117q-26 0 -26 25v63q0 14 6 19t20 5h228q24 0 24 -26v-858z" />
    <glyph glyph-name="asciicircum" unicode="^" horiz-adv-x="577" 
d="M287 551l-95 -250q-5 -12 -10 -19t-18 -7h-79q-14 0 -21.5 6.5t-2.5 19.5l153 356q5 10 10 16.5t17 6.5h93q12 0 17 -6.5t10 -16.5l154 -356q5 -13 -2.5 -19.5t-21.5 -6.5h-80q-13 0 -17.5 7t-9.5 19z" />
    <glyph glyph-name="underscore" unicode="_" horiz-adv-x="456" 
d="M410 -74q25 0 25 -23v-60q0 -25 -25 -25h-364q-25 0 -25 25v60q0 23 25 23h364z" />
    <glyph glyph-name="grave" unicode="`" horiz-adv-x="314" 
d="M60 683q-8 11 -4.5 18t16.5 7h87q14 0 22 -7t13 -18l48 -98q11 -25 -13 -25h-65q-13 0 -20.5 6t-11.5 11z" />
    <glyph glyph-name="a" unicode="a" horiz-adv-x="517" 
d="M60 362q0 67 47.5 105.5t154.5 38.5q109 0 155 -38.5t46 -105.5v-336q0 -26 -24 -26h-75q-14 0 -18 6t-6 20l-2 21q-22 -18 -58.5 -36.5t-89.5 -18.5q-37 0 -64 10t-45 27.5t-26.5 40t-8.5 47.5v45q0 25 9.5 48t28.5 40t47 27.5t65 10.5h138v64q0 27 -15.5 41.5
t-59.5 14.5q-43 0 -60 -12.5t-17 -39.5v-7q0 -25 -24 -25h-74q-14 0 -19 5.5t-5 19.5v13zM224 96q35 0 64 15t46 28v57h-112q-29 0 -38.5 -12.5t-9.5 -32.5v-16q0 -23 13.5 -31t36.5 -8z" />
    <glyph glyph-name="b" unicode="b" horiz-adv-x="540" 
d="M84 0q-25 0 -25 26v647q0 26 25 26h83q23 0 23 -26v-221q11 8 26 17.5t34.5 17.5t43.5 13.5t53 5.5q75 0 110 -39.5t35 -106.5v-222q0 -67 -35 -106.5t-110 -39.5q-31 0 -56 5.5t-44.5 14t-34.5 18.5t-25 18l-2 -22q-2 -14 -6 -20t-18 -6h-77zM360 340q0 10 -2 19
t-8 16.5t-16.5 12t-27.5 4.5q-19 0 -36.5 -5t-32.5 -12t-27 -15t-20 -14v-194q8 -6 20 -14t27 -15t32.5 -12t36.5 -5q17 0 27.5 4.5t16.5 12t8 17t2 19.5v181z" />
    <glyph glyph-name="c" unicode="c" horiz-adv-x="492" 
d="M255 506q109 0 157 -40t48 -107v-17q0 -14 -5.5 -19t-18.5 -5h-77q-14 0 -19.5 5t-5.5 19v7q0 28 -17 40.5t-60 12.5t-60 -12.5t-17 -40.5v-199q0 -28 17 -41t60 -13t60 13t17 41v15q0 25 25 25h77q24 0 24 -25v-25q0 -68 -48.5 -108t-157.5 -40q-110 0 -157.5 40
t-47.5 108v219q0 67 48 107t158 40z" />
    <glyph glyph-name="d" unicode="d" horiz-adv-x="540" 
d="M353 48l-25.5 -18t-34.5 -18.5t-44.5 -14t-54.5 -5.5q-75 0 -110 39.5t-35 106.5v222q0 67 35 106.5t110 39.5q29 0 53 -5.5t43 -13.5t34 -17.5t26 -17.5v221q0 14 5 20t19 6h83q24 0 24 -26v-647q0 -26 -24 -26h-77q-14 0 -18.5 6t-6.5 20zM180 159q0 -10 2 -19.5t8 -17
t16.5 -12t28.5 -4.5t35.5 5t32.5 12t27 15t20 14v194q-8 6 -20 14t-27 15t-32.5 12t-35.5 5q-35 0 -45 -16t-10 -36v-181z" />
    <glyph glyph-name="e" unicode="e" horiz-adv-x="499" 
d="M455 243q0 -23 -22 -23h-256v-74q0 -26 16.5 -40.5t61.5 -14.5t61.5 14.5t16.5 40.5v5q0 25 25 25h70q25 0 25 -25v-11q0 -34 -10.5 -61t-34 -46.5t-61.5 -30t-93 -10.5q-110 0 -157.5 40t-47.5 108v219q0 67 48 107t158 40q55 0 93 -10.5t62 -29.5t34.5 -46.5
t10.5 -60.5v-116zM177 308h156v44q0 26 -18 40.5t-60 14.5q-43 0 -60.5 -14.5t-17.5 -40.5v-44z" />
    <glyph glyph-name="f" unicode="f" horiz-adv-x="349" 
d="M97 496v62q0 67 52 107t163 40h9q13 0 19 -5t6 -19v-58q0 -26 -25 -26h-9q-83 0 -83 -54v-47h83q25 0 25 -23v-56q0 -25 -25 -25h-83v-366q0 -14 -5 -20t-19 -6h-83q-25 0 -25 26v366h-54q-24 0 -24 25v50q0 13 5.5 17.5t18.5 6.5l51 5h3z" />
    <glyph glyph-name="g" unicode="g" horiz-adv-x="540" 
d="M194 -8q-75 0 -110 39.5t-35 106.5v222q0 67 35 106.5t110 39.5q30 0 55 -6t45 -14.5t34.5 -18.5t25.5 -19l2 25q2 14 6 19.5t18 5.5h77q24 0 24 -25v-527q0 -67 -51.5 -107t-162.5 -40h-141q-14 0 -19.5 5t-5.5 19v58q0 26 25 26h141q83 0 83 54v84q-11 -8 -26 -17
t-34 -17t-43 -13.5t-53 -5.5zM180 159q0 -10 2 -19.5t8 -17t16.5 -12t28.5 -4.5t35.5 5t32.5 12t27 15t20 14v194q-8 6 -20 14t-27 15t-32.5 12t-35.5 5q-35 0 -45 -16t-10 -36v-181z" />
    <glyph glyph-name="h" unicode="h" horiz-adv-x="545" 
d="M190 454q22 17 60.5 34.5t96.5 17.5q69 0 107 -37.5t38 -96.5v-346q0 -26 -25 -26h-81q-26 0 -26 26v313q0 27 -11 40t-43 13q-19 0 -36.5 -5t-32.5 -11.5t-27 -14.5t-20 -14v-321q0 -26 -23 -26h-83q-25 0 -25 26v647q0 26 25 26h83q23 0 23 -26v-219z" />
    <glyph glyph-name="i" unicode="i" horiz-adv-x="250" 
d="M190 26q0 -26 -23 -26h-83q-25 0 -25 26v447q0 25 25 25h83q23 0 23 -25v-447zM190 587q0 -24 -23 -24h-83q-25 0 -25 24v86q0 26 25 26h83q23 0 23 -26v-86z" />
    <glyph glyph-name="j" unicode="j" horiz-adv-x="249" 
d="M190 587q0 -24 -23 -24h-84q-24 0 -24 24v86q0 26 24 26h84q23 0 23 -26v-86zM190 -54q0 -67 -51.5 -107t-162.5 -40h-9q-14 0 -19.5 5t-5.5 19v58q0 26 25 26h9q83 0 83 54v512q0 14 5 19.5t19 5.5h83q24 0 24 -25v-527z" />
    <glyph glyph-name="k" unicode="k" horiz-adv-x="495" 
d="M491 25q6 -9 3.5 -17t-15.5 -8h-91q-13 0 -21 7.5t-15 17.5l-140 204h-22v-204q0 -25 -23 -25h-83q-25 0 -25 25v649q0 25 25 25h83q23 0 23 -25v-346h22l124 145q8 9 17.5 17t22.5 8h90q13 0 16.5 -8t-4.5 -17l-162 -190z" />
    <glyph glyph-name="l" unicode="l" horiz-adv-x="250" 
d="M190 26q0 -26 -23 -26h-83q-25 0 -25 26v647q0 26 25 26h83q23 0 23 -26v-647z" />
    <glyph glyph-name="m" unicode="m" horiz-adv-x="835" 
d="M161 498q14 0 18.5 -5.5t5.5 -18.5l1 -24q10 9 24 18.5t33 18t43.5 14t54.5 5.5q47 0 79.5 -18t48.5 -49l23 19.5t34 22t47.5 18t62.5 7.5q69 0 107 -37.5t38 -96.5v-346q0 -26 -24 -26h-82q-25 0 -25 26v313q0 27 -11 40t-43 13q-20 0 -37.5 -5t-32 -12.5t-25 -15
t-15.5 -11.5v-322q0 -26 -25 -26h-81q-26 0 -26 26v313q0 27 -11 40t-43 13q-38 0 -67 -16t-43 -29v-321q0 -26 -23 -26h-83q-25 0 -25 26v448q0 24 25 24h77z" />
    <glyph glyph-name="n" unicode="n" horiz-adv-x="545" 
d="M161 498q14 0 18.5 -5.5t5.5 -18.5l2 -24q10 9 25 18.5t35 18t45 14t55 5.5q69 0 107 -37.5t38 -96.5v-346q0 -26 -25 -26h-81q-26 0 -26 26v313q0 27 -11 40t-43 13q-19 0 -36.5 -5t-32.5 -11.5t-27 -14.5t-20 -14v-321q0 -26 -23 -26h-83q-25 0 -25 26v448q0 24 25 24
h77z" />
    <glyph glyph-name="o" unicode="o" horiz-adv-x="530" 
d="M49 359q0 67 52.5 107t163.5 40t163.5 -40t52.5 -107v-219q0 -68 -52.5 -108t-163.5 -40t-163.5 40t-52.5 108v219zM350 348q0 54 -85 54t-85 -54v-197q0 -55 85 -55t85 55v197z" />
    <glyph glyph-name="p" unicode="p" horiz-adv-x="540" 
d="M161 498q14 0 18.5 -5.5t5.5 -19.5l2 -24q10 8 25 18t34.5 18.5t44.5 14.5t56 6q75 0 110 -39.5t35 -106.5v-222q0 -67 -35 -106.5t-110 -39.5q-29 0 -53 5.5t-43.5 13.5t-34.5 17t-26 17v-221q0 -25 -23 -25h-83q-25 0 -25 25v649q0 25 25 25h77zM360 340q0 10 -2 19
t-8 16.5t-16.5 12t-27.5 4.5q-19 0 -36.5 -5t-32.5 -12t-27 -15t-20 -14v-194q8 -6 20 -14t27 -15t32.5 -12t36.5 -5q17 0 27.5 4.5t16.5 12t8 17t2 19.5v181z" />
    <glyph glyph-name="q" unicode="q" horiz-adv-x="540" 
d="M355 473q2 14 6.5 19.5t18.5 5.5h77q24 0 24 -25v-649q0 -25 -24 -25h-83q-14 0 -19 5.5t-5 19.5v221q-11 -8 -26 -17t-34 -17t-43 -13.5t-53 -5.5q-75 0 -110 39.5t-35 106.5v222q0 67 35 106.5t110 39.5q30 0 54.5 -6t44.5 -14.5t34.5 -18.5l25.5 -18zM180 159
q0 -10 2 -19.5t8 -17t16.5 -12t28.5 -4.5t35.5 5t32.5 12t27 15t20 14v194q-8 6 -20 14t-27 15t-32.5 12t-35.5 5q-35 0 -45 -16t-10 -36v-181z" />
    <glyph glyph-name="r" unicode="r" horiz-adv-x="371" 
d="M334 506q26 0 26 -24v-64q0 -25 -26 -26q-27 -2 -50 -8.5t-41 -15.5t-31.5 -18.5t-21.5 -16.5v-307q0 -26 -23 -26h-83q-25 0 -25 26v448q0 24 25 24h77q14 0 18.5 -5.5t5.5 -18.5l3 -35q10 10 24 22t32 22t40.5 16.5t49.5 6.5z" />
    <glyph glyph-name="s" unicode="s" horiz-adv-x="472" 
d="M314 373q0 23 -20.5 32t-52.5 9t-52 -9t-20 -32v-11q0 -15 10 -23t21 -12l144 -51q47 -17 71.5 -42.5t24.5 -61.5v-51q0 -24 -11 -47t-35.5 -41.5t-63 -29.5t-92.5 -11t-92 11t-62 29.5t-35 41.5t-11 47v23q0 23 23 23h74q23 0 23 -23v-17q0 -23 23 -32.5t57 -9.5
t57.5 9.5t23.5 32.5v17q0 13 -10.5 21t-34.5 17l-145 53q-14 5 -28 15.5t-25.5 24t-18.5 30.5t-7 36v32q0 24 9.5 48t32 42.5t59.5 30.5t91 12t90.5 -12t59 -30.5t32 -42.5t9.5 -48v-19q0 -13 -4.5 -18t-18.5 -5h-74q-22 0 -22 23v19z" />
    <glyph glyph-name="t" unicode="t" horiz-adv-x="363" 
d="M311 496q25 0 25 -23v-56q0 -25 -25 -25h-91v-230q0 -28 19 -41t61 -13h22q25 0 25 -25v-58q0 -25 -25 -25h-42q-55 0 -92 9.5t-59 28t-31.5 46t-9.5 64.5v244h-49q-24 0 -24 25v50q0 13 5.5 17.5t18.5 6.5l46 5h3v96q0 25 25 25h83q14 0 19 -5.5t5 -19.5v-96h91z" />
    <glyph glyph-name="u" unicode="u" horiz-adv-x="539" 
d="M352 47q-10 -9 -24 -18.5t-33 -17.5t-43 -13.5t-54 -5.5q-69 0 -106.5 37.5t-37.5 96.5v347q0 25 24 25h82q25 0 25 -25v-314q0 -27 11 -40t43 -13q37 0 66 16t44 28v323q0 14 5 19.5t19 5.5h83q24 0 24 -25v-448q0 -25 -24 -25h-77q-14 0 -18.5 5.5t-6.5 19.5z" />
    <glyph glyph-name="v" unicode="v" horiz-adv-x="474" 
d="M186 0q-14 0 -17.5 5t-8.5 18l-149 450q-5 13 2.5 19t20.5 6h86q14 0 19 -7t9 -18l73 -227q3 -11 6 -25.5t5 -28l3.5 -24t1.5 -14.5q0 3 1.5 12.5t4 22.5t6 28t8.5 28l79 228q4 11 9 18t19 7h76q14 0 21.5 -6t2.5 -19l-158 -450q-5 -13 -8.5 -18t-16.5 -5h-95z" />
    <glyph glyph-name="w" unicode="w" horiz-adv-x="716" 
d="M577 23q-4 -13 -8 -18t-17 -5h-99q-14 0 -18.5 6t-7.5 17l-56 237q-4 15 -6.5 32t-2.5 21q-1 -3 -4.5 -18l-8.5 -35l-69 -237q-3 -11 -7.5 -17t-17.5 -6h-97q-14 0 -18.5 5.5t-7.5 17.5l-121 450q-4 13 3 19t21 6h79q14 0 19.5 -7t8.5 -18l69 -262q4 -16 5.5 -31t2.5 -17
q0 1 1 6.5t3 12.5t4 15t4 14l73 262q3 11 8.5 18t18.5 7h80q14 0 20 -7t8 -18l61 -262q4 -17 6 -30.5t3 -16.5q0 2 3.5 17.5t7.5 29.5l68 262q3 11 8.5 18t19.5 7h66q13 0 20 -6t3 -19z" />
    <glyph glyph-name="x" unicode="x" horiz-adv-x="475" 
d="M456 25q6 -9 3.5 -17t-16.5 -8h-90q-13 0 -21 8t-14 17l-92 136l-88 -136q-6 -9 -13.5 -17t-21.5 -8h-80q-13 0 -15.5 8t3.5 17l153 229l-146 219q-7 10 -4.5 17.5t16.5 7.5h90q14 0 21.5 -7t15.5 -18l87 -130l82 130q7 11 15 18t21 7h80q13 0 16 -7.5t-4 -17.5
l-148 -223z" />
    <glyph glyph-name="y" unicode="y" horiz-adv-x="474" 
d="M220 244q4 -13 7 -27t5 -26l3.5 -20.5t1.5 -10.5q0 1 2 9.5l5 20.5l6.5 25t7.5 25l79 233q4 12 9 18.5t18 6.5h76q14 0 21.5 -6.5t2.5 -18.5l-221 -649q-3 -10 -8.5 -17.5t-19.5 -7.5h-60q-14 0 -21 6t-3 19l49 163l-169 486q-5 12 2.5 18.5t20.5 6.5h83q14 0 19 -7
t9 -18z" />
    <glyph glyph-name="z" unicode="z" horiz-adv-x="446" 
d="M377 498q14 0 19.5 -5t5.5 -19v-58q0 -11 -8 -22l-202 -287h203q14 0 19.5 -5t5.5 -19v-59q0 -24 -25 -24h-338q-25 0 -25 24v59q0 11 8 22l200 286h-166q-26 0 -26 24v59q0 14 6 19t20 5h303z" />
    <glyph glyph-name="braceleft" unicode="{" horiz-adv-x="450" 
d="M155 560q0 68 51.5 108t162.5 40h9q25 0 25 -25v-58q0 -25 -25 -25h-9q-42 0 -60.5 -13t-18.5 -41v-203q0 -70 -62 -94q31 -13 46.5 -36t15.5 -59v-210q0 -28 18.5 -41t60.5 -13h9q25 0 25 -25v-58q0 -25 -25 -25h-9q-111 0 -162.5 40t-51.5 108v211q0 28 -18 41t-59 13
h-1q-25 0 -25 25v57q0 26 25 26h1q41 0 59 13t18 41v203z" />
    <glyph glyph-name="bar" unicode="|" horiz-adv-x="274" 
d="M205 -185q0 -14 -5 -20t-19 -6h-87q-14 0 -19 6t-5 20v858q0 14 5 20t19 6h87q14 0 19 -6t5 -20v-858z" />
    <glyph glyph-name="braceright" unicode="}" horiz-adv-x="450" 
d="M295 357q0 -28 18 -41t59 -13h1q25 0 25 -26v-57q0 -25 -25 -25h-1q-41 0 -59 -13t-18 -41v-211q0 -68 -51.5 -108t-162.5 -40h-10q-25 0 -25 25v58q0 25 25 25h10q42 0 60.5 13t18.5 41v210q0 36 15.5 59t45.5 36q-61 24 -61 94v203q0 28 -18.5 41t-60.5 13h-10
q-25 0 -25 25v58q0 25 25 25h10q111 0 162.5 -40t51.5 -108v-203z" />
    <glyph glyph-name="asciitilde" unicode="~" horiz-adv-x="504" 
d="M173 261q-13 0 -16.5 -9t-5.5 -22l-1 -6q-2 -14 -8.5 -18t-18.5 -4h-43q-23 0 -20 28l4 48q4 48 30 68t54 20q14 0 28.5 -3t25.5 -8l90 -41q11 -5 21.5 -9t18.5 -4q11 0 14 8.5t6 22.5l1 5q2 13 8.5 17.5t18.5 4.5h43q14 0 18.5 -7.5t2.5 -21.5l-5 -41q-6 -51 -30 -72.5
t-52 -21.5q-15 0 -32 4.5t-29 9.5l-91 42q-20 10 -32 10z" />
    <glyph glyph-name="uni00A0" unicode="&#xa0;" horiz-adv-x="194" 
 />
    <glyph glyph-name="exclamdown" unicode="&#xa1;" horiz-adv-x="277" 
d="M82 291q1 14 5.5 19.5t18.5 5.5h62q14 0 18.5 -5.5t5.5 -19.5l14 -183v-264q0 -26 -25 -26h-88q-14 0 -19 6t-5 20v264zM71 473q0 14 5 19.5t19 5.5h87q14 0 19 -5.5t5 -19.5v-81q0 -14 -5 -19.5t-19 -5.5h-87q-14 0 -19 5.5t-5 19.5v81z" />
    <glyph glyph-name="cent" unicode="&#xa2;" horiz-adv-x="545" 
d="M341 592q72 -12 104.5 -49.5t32.5 -92.5v-17q0 -14 -5.5 -19t-18.5 -5h-77q-14 0 -19.5 5t-5.5 19v7q0 28 -17 40.5t-60 12.5t-60 -12.5t-17 -40.5v-199q0 -28 17 -41t60 -13t60 13t17 41v15q0 25 25 25h77q24 0 24 -25v-25q0 -57 -32.5 -94t-104.5 -49v-62q0 -14 -5 -20
t-19 -6h-83q-14 0 -19 6t-5 20v61q-77 11 -110 49t-33 95v219q0 57 33.5 94.5t109.5 48.5v61q0 14 5 20t19 6h83q14 0 19 -6t5 -20v-62z" />
    <glyph glyph-name="sterling" unicode="&#xa3;" horiz-adv-x="687" 
d="M392 389q25 0 25 -24v-60q0 -14 -6 -19t-19 -5h-109v-173h152q29 0 43 19.5t14 61.5v9q0 25 25 25h78q25 0 25 -25v-9q0 -55 -11 -91.5t-30.5 -58t-47 -30.5t-60.5 -9h-379q-25 0 -25 25v59q0 14 5.5 19t19.5 5h56v173h-56q-14 0 -19.5 5t-5.5 19v60q0 24 25 24h56v138
q0 31 11 60.5t36.5 51.5t68.5 35.5t107 13.5t107 -13.5t69 -35.5t37 -51.5t11 -60.5v-34q0 -26 -24 -26h-81q-24 0 -24 26v10q0 73 -94 73q-47 0 -68 -17.5t-21 -55.5v-114h109z" />
    <glyph glyph-name="currency" unicode="&#xa4;" horiz-adv-x="630" 
d="M123 311v55h-31q-25 0 -25 24v35q0 14 6 19t19 5h31v76q0 31 11.5 60.5t38.5 52.5t72 36.5t113 13.5t113 -13.5t72 -36.5t38.5 -52.5t11.5 -60.5v-48q0 -25 -23 -25h-83q-25 0 -25 25v24q0 75 -102 75q-101 0 -101 -75v-52h98q14 0 19.5 -5t5.5 -19v-35q0 -24 -25 -24
h-98v-55h98q25 0 25 -23v-35q0 -25 -25 -25h-98v-49q0 -75 101 -75q102 0 102 75v38q0 25 25 25h83q23 0 23 -25v-62q0 -32 -11.5 -61t-38.5 -52t-72 -36.5t-113 -13.5t-113 13.5t-72 36.5t-38.5 52t-11.5 61v73h-31q-25 0 -25 25v35q0 23 25 23h31z" />
    <glyph glyph-name="yen" unicode="&#xa5;" horiz-adv-x="657" 
d="M397 231v-206q0 -13 -5 -19t-19 -6h-87q-25 0 -25 25v206h-135q-26 0 -26 24v35q0 14 6 19t20 5h102l-25 54h-77q-26 0 -26 25v35q0 23 26 23h39l-94 204q-5 11 -0.5 18t17.5 7h99q13 0 19 -7t11 -18l95 -228l5 -14.5t5.5 -16.5l4.5 -14.5t2 -7.5q0 1 2 7.5l4.5 14.5
t5.5 16.5t6 14.5l106 228q5 11 10.5 18t18.5 7h86q13 0 18.5 -6.5t-0.5 -18.5l-98 -204h45q25 0 25 -23v-35q0 -25 -25 -25h-84l-26 -54h110q13 0 19 -5t6 -19v-35q0 -24 -25 -24h-136z" />
    <glyph glyph-name="brokenbar" unicode="&#xa6;" horiz-adv-x="250" 
d="M190 340q0 -26 -23 -26h-83q-25 0 -25 26v314q0 26 25 26h83q23 0 23 -26v-314zM190 -185q0 -26 -23 -26h-83q-25 0 -25 26v314q0 26 25 26h83q23 0 23 -26v-314z" />
    <glyph glyph-name="section" unicode="&#xa7;" horiz-adv-x="552" 
d="M468 203q0 -24 -25 -24h-73q-24 0 -24 24v65q0 18 -12 28t-26 15l-140 44q-18 6 -35.5 15.5t-31.5 24.5t-22.5 35.5t-8.5 47.5v61q0 32 11.5 59t36.5 47t64.5 31.5t94.5 11.5q110 0 157.5 -38t47.5 -105v-9q0 -14 -5 -19.5t-19 -5.5h-73q-24 0 -24 25v15q0 28 -19 39.5
t-61 11.5q-43 0 -62.5 -12t-19.5 -40v-64q0 -9 5 -15.5t12 -11.5t15.5 -8.5t15.5 -5.5l126 -39q38 -12 66.5 -44t28.5 -81v-78zM85 282q0 14 5 19t19 5h73q13 0 18.5 -5t5.5 -19v-65q0 -17 12 -27.5t26 -15.5l140 -44q18 -6 35.5 -15.5t31.5 -24.5t22.5 -35.5t8.5 -47.5v-60
q0 -32 -11.5 -59.5t-36.5 -47.5t-64 -31.5t-94 -11.5q-110 0 -158 38.5t-48 105.5v9q0 14 5.5 19t18.5 5h73q14 0 19.5 -5t5.5 -19v-16q0 -28 18.5 -39.5t61.5 -11.5t62 12t19 40v65q0 9 -5 15.5t-12 11t-15.5 8t-15.5 5.5l-126 39q-37 11 -65.5 44t-28.5 82v77z" />
    <glyph glyph-name="dieresis" unicode="&#xa8;" horiz-adv-x="381" 
d="M168 588q0 -25 -23 -25h-49q-14 0 -19 5.5t-5 19.5v93q0 14 5 19.5t19 5.5h49q23 0 23 -25v-93zM308 588q0 -25 -23 -25h-49q-25 0 -25 25v93q0 25 25 25h49q23 0 23 -25v-93z" />
    <glyph glyph-name="copyright" unicode="&#xa9;" horiz-adv-x="778" 
d="M709 225q0 -42 -10 -83.5t-43.5 -74.5t-97 -54t-169.5 -21t-169 21t-96.5 54t-43.5 74.5t-10 83.5v231q0 28 4 56t16 53.5t34 48t57 39t86.5 26t121.5 9.5q71 0 122 -9.5t86.5 -26t57.5 -39t34 -48t16 -53.5t4 -56v-231zM614 475q0 29 -12 53.5t-39 42t-70 27.5t-104 10
t-103.5 -10t-69.5 -28t-39 -42.5t-12 -53.5v-267q0 -29 12 -53.5t39 -42.5t69.5 -28t103.5 -10t104 10t70 27.5t39 42t12 53.5v269zM391 546q48 0 80.5 -9t52 -27t28 -44t8.5 -59v-9q0 -14 -5.5 -19t-19.5 -5h-67q-13 0 -18.5 5t-5.5 19v6q0 29 -12.5 41.5t-40.5 12.5
q-29 0 -41 -12.5t-12 -41.5v-128q0 -28 12 -41t41 -13q53 0 53 54v13q0 25 24 25h67q25 0 25 -25v-17q0 -33 -8.5 -59t-28 -44t-52.5 -27t-81 -9t-80.5 9t-52 27t-28 44t-8.5 59v135q0 33 8.5 59t28.5 44t52.5 27t80.5 9z" />
    <glyph glyph-name="ordfeminine" unicode="&#xaa;" horiz-adv-x="359" 
d="M56 601q0 41 32 64t97 23q67 0 97 -24t30 -67v-197q0 -9 -3.5 -13t-14.5 -4h-56q-11 0 -13.5 3.5t-4.5 13.5l-2 9q-13 -11 -33.5 -21t-49.5 -10q-47 0 -67.5 23.5t-20.5 53.5v25q0 31 25 54t73 23h70v40q0 11 -7.5 16.5t-25.5 5.5q-33 0 -33 -21v-4q0 -17 -17 -17h-57
q-19 0 -19 17v7zM167 447q15 0 29 8.5t19 13.5v29h-50q-11 0 -16 -6t-5 -14v-11q0 -20 23 -20z" />
    <glyph glyph-name="guillemotleft" unicode="&#xab;" horiz-adv-x="603" 
d="M407 245l106 -73q10 -7 18 -14.5t8 -20.5v-83q0 -13 -8.5 -17.5t-17.5 1.5l-186 133q-8 6 -15.5 14t-7.5 20v81q0 12 7.5 19.5t15.5 13.5l186 134q10 7 18 2t8 -18v-83q0 -12 -7.5 -19.5t-18.5 -15.5zM167 245l106 -73q10 -7 18 -14.5t8 -20.5v-83q0 -13 -8.5 -17.5
t-17.5 1.5l-186 133q-8 6 -15.5 14t-7.5 20v81q0 12 7.5 19.5t15.5 13.5l186 134q10 7 18 2t8 -18v-83q0 -12 -7.5 -19.5t-18.5 -15.5z" />
    <glyph glyph-name="logicalnot" unicode="&#xac;" horiz-adv-x="400" 
d="M74 320q0 26 9.5 49t26.5 40t40 27t49 10t49 -10t40 -27t27 -40t10 -49t-10 -48.5t-27 -39.5t-40 -27t-49 -10t-49 10t-40 27t-26.5 39.5t-9.5 48.5z" />
    <glyph glyph-name="uni00AD" unicode="&#xad;" horiz-adv-x="436" 
d="M352 342q13 0 19 -5t6 -19v-59q0 -24 -25 -24h-268q-25 0 -25 24v59q0 14 6 19t19 5h268z" />
    <glyph glyph-name="registered" unicode="&#xae;" horiz-adv-x="646" 
d="M577 338q0 -26 -8 -55t-34 -53.5t-76 -40.5t-135 -16t-135 16t-76.5 40.5t-34.5 53.5t-8 55v185q0 26 8 55t34.5 53.5t76.5 40.5t135 16t135 -16t76 -40.5t34 -53.5t8 -55v-185zM490 531q0 17 -7 32t-26 26t-51 17t-82 6t-82.5 -6.5t-51.5 -17.5t-26.5 -25.5t-7.5 -31.5
v-201q0 -17 7.5 -32t26.5 -26t51.5 -17.5t82.5 -6.5t82 6.5t51 17.5t26 25.5t7 31.5v202zM449 466q0 -19 -7.5 -38t-30.5 -31l34 -85q3 -8 -1.5 -13t-15.5 -5h-53q-8 0 -10.5 4.5t-6.5 13.5l-28 70h-34v-70q0 -18 -16 -18h-54q-17 0 -17 18v237q0 17 17 17h113
q35 0 56.5 -7.5t33.5 -19.5t16 -26.5t4 -29.5v-17zM296 503v-57h34q8 0 19 5.5t11 16.5v12q0 13 -10 18t-20 5h-34z" />
    <glyph glyph-name="macron" unicode="&#xaf;" horiz-adv-x="406" 
d="M318 671q14 0 19.5 -5t5.5 -19v-51q0 -24 -25 -24h-230q-26 0 -26 24v51q0 14 6 19t20 5h230z" />
    <glyph glyph-name="degree" unicode="&#xb0;" horiz-adv-x="435" 
d="M54 576q0 25 8 46t27 35.5t50.5 22.5t78.5 8q46 0 77.5 -8t50.5 -22.5t27 -35.5t8 -46v-95q0 -26 -8 -46.5t-27 -34.5t-50.5 -22t-77.5 -8q-47 0 -78.5 8t-50.5 22t-27 34.5t-8 46.5v95zM270 572q0 17 -15 23.5t-38 6.5t-37.5 -6.5t-14.5 -23.5v-86q0 -17 14.5 -24
t37.5 -7t38 7t15 24v86z" />
    <glyph glyph-name="plusminus" unicode="&#xb1;" horiz-adv-x="560" 
d="M226 328h-142q-13 0 -19 5t-6 19v60q0 23 25 23h142v94q0 25 23 25h59q25 0 25 -25v-94h142q26 0 26 -23v-60q0 -14 -6 -19t-20 -5h-142v-94q0 -25 -25 -25h-59q-23 0 -23 25v94zM475 153q14 0 20 -5t6 -19v-59q0 -25 -26 -25h-391q-25 0 -25 25v59q0 14 6 19t19 5h391z
" />
    <glyph glyph-name="uni00B2" unicode="&#xb2;" horiz-adv-x="388" 
d="M324 356q19 0 19 -17v-46q0 -18 -19 -18h-250q-18 0 -18 18v107q0 24 9.5 34.5t26.5 18.5l128 57q8 4 13.5 10.5t5.5 21.5v28q0 20 -14 29.5t-34 9.5t-33 -9.5t-13 -29.5v-21q0 -19 -17 -19h-64q-18 0 -18 19v36q0 19 7.5 37.5t24.5 33t44.5 23.5t68.5 9q40 0 68.5 -9
t46 -23.5t25.5 -33t8 -37.5v-38q0 -24 -5.5 -41t-13.5 -28.5t-18.5 -19t-20.5 -11.5l-109 -50q-5 -2 -9.5 -5t-4.5 -10v-26h166z" />
    <glyph glyph-name="uni00B3" unicode="&#xb3;" horiz-adv-x="387" 
d="M186 523q21 0 34.5 9t13.5 29v11q0 39 -43 39t-43 -39v-5q0 -17 -18 -17h-64q-11 0 -14.5 4.5t-3.5 12.5v20q0 19 6.5 37t23 32.5t44.5 23.5t71 9q42 0 69.5 -8.5t43.5 -22.5t22.5 -32.5t6.5 -37.5v-42q0 -22 -9.5 -36.5t-32.5 -22.5q26 -11 37 -28.5t11 -40.5v-47
q0 -19 -7 -37t-24 -32t-45.5 -22.5t-70.5 -8.5t-70.5 9t-46 23.5t-24.5 32.5t-7 37v20q0 9 3.5 13t14.5 4h63q19 0 19 -17v-5q0 -20 13 -29.5t34 -9.5q20 0 34 9.5t14 29.5v18q0 21 -14 30t-35 9h-41q-19 0 -19 17v43q0 11 4.5 14.5t14.5 3.5h35z" />
    <glyph glyph-name="acute" unicode="&#xb4;" horiz-adv-x="314" 
d="M181 577q-4 -5 -11.5 -11t-20.5 -6h-65q-24 0 -13 25l48 98q5 11 13 18t22 7h87q13 0 16.5 -7t-4.5 -18z" />
    <glyph glyph-name="mu" unicode="&#xb5;" horiz-adv-x="539" 
d="M352 47q-10 -9 -24 -18.5t-32.5 -17.5t-42 -13.5t-51.5 -5.5q-14 0 -24 3l7 -171q1 -25 -24 -25h-83q-24 0 -24 25v649q0 25 24 25h82q25 0 25 -25v-314q0 -27 11 -40t43 -13q37 0 66 16t44 28v323q0 14 5 19.5t19 5.5h83q24 0 24 -25v-448q0 -25 -24 -25h-77
q-14 0 -18.5 5.5t-6.5 19.5z" />
    <glyph glyph-name="paragraph" unicode="&#xb6;" horiz-adv-x="693" 
d="M422 -176q0 -14 -5 -19.5t-19 -5.5h-87q-14 0 -19 5.5t-5 19.5v458h-24q-57 0 -94.5 10t-59 27t-30.5 41t-9 53v136q0 28 9 52.5t30.5 41.5t59 27t94.5 10h135q14 0 19 -6t5 -19v-831zM624 -176q0 -14 -5 -19.5t-19 -5.5h-87q-14 0 -19 5.5t-5 19.5v830q0 14 5 20t19 6
h87q14 0 19 -6t5 -20v-830z" />
    <glyph glyph-name="periodcentered" unicode="&#xb7;" horiz-adv-x="250" 
d="M192 236q0 -14 -5 -19.5t-19 -5.5h-85q-25 0 -25 25v81q0 25 25 25h85q14 0 19 -5.5t5 -19.5v-81z" />
    <glyph glyph-name="cedilla" unicode="&#xb8;" horiz-adv-x="261" 
d="M161 -45q39 0 63.5 -19.5t24.5 -62.5q0 -44 -24.5 -64t-63.5 -20h-119q-25 0 -25 25v20q0 14 5.5 19t19.5 5h98q19 0 19 15q0 16 -19 16h-75q-23 0 -29.5 9t-1.5 24l26 91q3 11 9.5 17t19.5 5l37 -3q11 -1 16.5 -9t1.5 -21l-13 -47h30z" />
    <glyph glyph-name="uni00B9" unicode="&#xb9;" horiz-adv-x="374" 
d="M223 687q6 1 11.5 -1t5.5 -16v-315h71q10 0 13.5 -3t3.5 -14v-46q0 -18 -17 -18h-246q-19 0 -19 18v46q0 11 4 14t15 3h73v237l-73 -9q-10 -2 -14.5 1t-4.5 14v46q0 9 4.5 12.5t14.5 5.5z" />
    <glyph glyph-name="ordmasculine" unicode="&#xba;" horiz-adv-x="372" 
d="M46 594q0 43 35.5 68.5t104.5 25.5t104 -25.5t35 -68.5v-123q0 -43 -35 -68t-104 -25t-104.5 25t-35.5 68v123zM225 586q0 15 -11 20.5t-28 5.5t-28.5 -5.5t-11.5 -20.5v-106q0 -15 11.5 -21t28.5 -6t28 6t11 21v106z" />
    <glyph glyph-name="guillemotright" unicode="&#xbb;" horiz-adv-x="603" 
d="M436 253l-106 73q-10 7 -18 14.5t-8 20.5v83q0 13 8.5 17.5t17.5 -1.5l186 -133q8 -6 15.5 -14t7.5 -20v-81q0 -12 -7.5 -19.5t-15.5 -13.5l-186 -134q-10 -7 -18 -2t-8 18v83q0 12 7.5 19.5t18.5 15.5zM196 253l-106 73q-10 7 -18 14.5t-8 20.5v83q0 13 8.5 17.5
t17.5 -1.5l186 -133q8 -6 15.5 -14t7.5 -20v-81q0 -12 -7.5 -19.5t-15.5 -13.5l-186 -134q-10 -7 -18 -2t-8 18v83q0 12 7.5 19.5t18.5 15.5z" />
    <glyph glyph-name="onequarter" unicode="&#xbc;" horiz-adv-x="895" 
d="M658 183h89v207q0 18 18 18h66q11 0 14.5 -4.5t3.5 -13.5v-372q0 -9 -3.5 -13.5t-14.5 -4.5h-66q-18 0 -18 18v85h-176q-20 0 -20 18v37q0 10 3 19l60 213q5 18 22 18h67q11 0 13.5 -5t0.5 -13zM223 687q6 1 11.5 -1t5.5 -16v-315h71q10 0 13.5 -3t3.5 -14v-46
q0 -18 -17 -18h-246q-19 0 -19 18v46q0 11 4 14t15 3h73v240l-73 -12q-10 -2 -14.5 1t-4.5 14v46q0 9 4.5 12.5t14.5 5.5zM421 -31q-2 -9 -5.5 -13.5t-14.5 -4.5h-70q-19 0 -14 18l179 742q2 9 6.5 13.5t15.5 4.5h69q19 0 14 -18z" />
    <glyph glyph-name="onehalf" unicode="&#xbd;" horiz-adv-x="899" 
d="M223 687q6 1 11.5 -1t5.5 -16v-315h71q10 0 13.5 -3t3.5 -14v-46q0 -18 -17 -18h-246q-19 0 -19 18v46q0 11 4 14t15 3h73v238l-73 -10q-10 -2 -14.5 1t-4.5 14v46q0 9 4.5 12.5t14.5 5.5zM412 -31q-2 -9 -6 -13.5t-14 -4.5h-70q-19 0 -14 18l180 742q2 9 6 13.5t15 4.5
h69q19 0 14 -18zM835 81q18 0 18 -17v-46q0 -18 -18 -18h-251q-18 0 -18 18v107q0 24 9.5 34.5t26.5 18.5l128 57q8 4 13.5 10.5t5.5 21.5v28q0 20 -13.5 29.5t-33.5 9.5t-33.5 -9.5t-13.5 -29.5v-21q0 -19 -17 -19h-64q-18 0 -18 19v36q0 19 7.5 37.5t24.5 33t45 23.5t69 9
q40 0 68.5 -9t45.5 -23.5t25 -33t8 -37.5v-38q0 -24 -5.5 -41t-13.5 -28.5t-18.5 -18.5t-20.5 -12l-108 -50l-9.5 -5t-5.5 -9v-27h167z" />
    <glyph glyph-name="threequarters" unicode="&#xbe;" horiz-adv-x="906" 
d="M186 522q21 0 34.5 9t13.5 29v11q0 39 -43 39t-43 -39v-5q0 -17 -18 -17h-64q-11 0 -14.5 4.5t-3.5 12.5v20q0 19 6.5 37t23 32.5t44.5 23.5t71 9q42 0 69.5 -8.5t43.5 -22.5t22.5 -32.5t6.5 -37.5v-42q0 -22 -9.5 -36.5t-32.5 -22.5q26 -11 37 -28.5t11 -40.5v-47
q0 -19 -7 -37t-24 -32t-45.5 -22.5t-70.5 -8.5t-70.5 9t-46 23.5t-24.5 32.5t-7 37v20q0 9 3.5 13t14.5 4h63q19 0 19 -17v-5q0 -20 13 -29.5t34 -9.5q20 0 34 9.5t14 29.5v18q0 21 -14 30t-35 9h-41q-19 0 -19 17v43q0 11 4.5 14.5t14.5 3.5h35zM432 -31q-2 -9 -5.5 -13.5
t-14.5 -4.5h-70q-19 0 -14 18l180 742q2 9 6 13.5t15 4.5h69q19 0 14 -18zM669 183h89v207q0 18 18 18h66q11 0 14.5 -4.5t3.5 -13.5v-372q0 -9 -3.5 -13.5t-14.5 -4.5h-66q-18 0 -18 18v85h-176q-20 0 -20 18v37q0 10 3 19l60 213q5 18 22 18h67q11 0 13.5 -5t0.5 -13z" />
    <glyph glyph-name="questiondown" unicode="&#xbf;" horiz-adv-x="565" 
d="M378 223q0 -21 -5.5 -35.5t-14.5 -25t-20 -17t-23 -12.5l-92 -47q-12 -7 -25 -20t-13 -41v-30q0 -75 99 -75t99 75v39q0 25 23 25h83q25 0 25 -25v-61q0 -32 -11.5 -61t-38.5 -52t-71 -36.5t-109 -13.5t-109.5 13.5t-72 36.5t-39.5 52t-12 61v47q0 36 9 62t22.5 44.5
t30 30t31.5 18.5l57 26q21 10 31.5 21t10.5 35v35q0 14 5 19t18 5h88q13 0 18.5 -5t5.5 -19v-69zM243 473q0 25 23 25h88q24 0 24 -25v-81q0 -25 -24 -25h-88q-23 0 -23 25v81z" />
    <glyph glyph-name="Agrave" unicode="&#xc0;" horiz-adv-x="553" 
d="M320 680q25 0 32 -25l186 -630q8 -25 -18 -25h-90q-13 0 -19 6.5t-10 18.5l-35 122h-186l-35 -122q-4 -12 -10 -18.5t-20 -6.5h-81q-27 0 -19 25l187 630q4 13 10.5 19t20.5 6h87zM303 365q-5 15 -10 43.5t-9 58l-7 52.5t-3 28q-1 -5 -4 -28t-7.5 -51.5t-10 -57
t-9.5 -44.5l-34 -112h127zM132 852q-8 11 -4.5 18.5t17.5 7.5h87q14 0 21.5 -7t12.5 -18l48 -98q11 -25 -12 -25h-65q-14 0 -21 5.5t-12 11.5z" />
    <glyph glyph-name="Aacute" unicode="&#xc1;" horiz-adv-x="553" 
d="M320 680q25 0 32 -25l186 -630q8 -25 -18 -25h-90q-13 0 -19 6.5t-10 18.5l-35 122h-186l-35 -122q-4 -12 -10 -18.5t-20 -6.5h-81q-27 0 -19 25l187 630q4 13 10.5 19t20.5 6h87zM303 365q-5 15 -10 43.5t-9 58l-7 52.5t-3 28q-1 -5 -4 -28t-7.5 -51.5t-10 -57
t-9.5 -44.5l-34 -112h127zM341 747q-4 -5 -11 -11t-21 -6h-65q-11 0 -15.5 6t2.5 19l49 98q5 11 12.5 18t21.5 7h87q14 0 17.5 -7t-4.5 -18z" />
    <glyph glyph-name="Acircumflex" unicode="&#xc2;" horiz-adv-x="553" 
d="M320 680q25 0 32 -25l186 -630q8 -25 -18 -25h-90q-13 0 -19 6.5t-10 18.5l-35 122h-186l-35 -122q-4 -12 -10 -18.5t-20 -6.5h-81q-27 0 -19 25l187 630q4 13 10.5 19t20.5 6h87zM303 365q-5 15 -10 43.5t-9 58l-7 52.5t-3 28q-1 -5 -4 -28t-7.5 -51.5t-10 -57
t-9.5 -44.5l-34 -112h127zM252 755q-5 -8 -13 -16.5t-21 -8.5h-64q-13 0 -17 7t4 18l73 98q8 11 16.5 18t22.5 7h48q13 0 22 -7t17 -18l73 -98q8 -11 4 -18t-17 -7h-64q-13 0 -21 7.5t-13 17.5l-25 45z" />
    <glyph glyph-name="Atilde" unicode="&#xc3;" horiz-adv-x="553" 
d="M320 680q25 0 32 -25l186 -630q8 -25 -18 -25h-90q-13 0 -19 6.5t-10 18.5l-35 122h-186l-35 -122q-4 -12 -10 -18.5t-20 -6.5h-81q-27 0 -19 25l187 630q4 13 10.5 19t20.5 6h87zM303 365q-5 15 -10 43.5t-9 58l-7 52.5t-3 28q-1 -5 -4 -28t-7.5 -51.5t-10 -57
t-9.5 -44.5l-34 -112h127zM216 786q-19 0 -19 -25v-5q0 -14 -7 -18t-20 -4h-43q-24 0 -21 29l4 41q4 38 29 58t59 20q16 0 31.5 -4t26.5 -9l43 -21q11 -5 20.5 -10t16.5 -5q10 0 13.5 5.5t5.5 18.5l1 6q2 13 8.5 17.5t18.5 4.5h43q14 0 18 -8t3 -21l-3 -39q-3 -40 -27 -59
t-56 -19q-19 0 -34.5 3.5t-29.5 9.5l-43 19q-11 5 -20.5 10t-17.5 5z" />
    <glyph glyph-name="Adieresis" unicode="&#xc4;" horiz-adv-x="553" 
d="M320 680q25 0 32 -25l186 -630q8 -25 -18 -25h-90q-13 0 -19 6.5t-10 18.5l-35 122h-186l-35 -122q-4 -12 -10 -18.5t-20 -6.5h-81q-27 0 -19 25l187 630q4 13 10.5 19t20.5 6h87zM303 365q-5 15 -10 43.5t-9 58l-7 52.5t-3 28q-1 -5 -4 -28t-7.5 -51.5t-10 -57
t-9.5 -44.5l-34 -112h127zM256 757q0 -14 -5 -19.5t-19 -5.5h-49q-24 0 -24 25v93q0 26 24 26h49q14 0 19 -6t5 -20v-93zM395 757q0 -25 -23 -25h-49q-14 0 -19 5.5t-5 19.5v93q0 14 5 20t19 6h49q23 0 23 -26v-93z" />
    <glyph glyph-name="Aring" unicode="&#xc5;" horiz-adv-x="553" 
d="M320 680q25 0 32 -25l186 -630q8 -25 -18 -25h-90q-13 0 -19 6.5t-10 18.5l-35 122h-186l-35 -122q-4 -12 -10 -18.5t-20 -6.5h-81q-27 0 -19 25l187 630q4 13 10.5 19t20.5 6h87zM303 365q-5 15 -10 43.5t-9 58l-7 52.5t-3 28q-1 -5 -4 -28t-7.5 -51.5t-10 -57
t-9.5 -44.5l-34 -112h127zM389 792q0 -31 -26.5 -54.5t-85.5 -23.5t-85.5 23.5t-26.5 54.5v29q0 31 26.5 54.5t85.5 23.5t85.5 -23.5t26.5 -54.5v-29zM317 813q0 30 -40 30t-40 -30v-12q0 -31 40 -31t40 31v12z" />
    <glyph glyph-name="AE" unicode="&#xc6;" horiz-adv-x="835" 
d="M759 680q14 0 19.5 -5t5.5 -19v-61q0 -14 -5.5 -19t-19.5 -5h-231v-166h214q14 0 20 -5t6 -19v-57q0 -25 -26 -25h-214v-190h242q25 0 25 -23v-62q0 -24 -25 -24h-345q-25 0 -25 25v122h-183l-71 -122q-5 -9 -11.5 -17t-17.5 -8h-82q-13 0 -19 7t1 18l375 631q4 6 12 15
t23 9h332zM281 254h119v211q-19 -39 -34 -65z" />
    <glyph glyph-name="Ccedilla" unicode="&#xc7;" horiz-adv-x="569" 
d="M324 -45q39 0 63.5 -19.5t24.5 -62.5q0 -44 -24.5 -64t-63.5 -20h-119q-25 0 -25 25v20q0 14 5.5 19t19.5 5h98q19 0 19 15q0 16 -19 16h-75q-23 0 -29.5 9t-1.5 24l21 76q-45 7 -75.5 22.5t-49 36.5t-26.5 46t-8 52v370q0 31 11.5 60.5t38.5 52.5t72 36.5t113 13.5
t113 -13.5t72 -36.5t38.5 -52.5t11.5 -60.5v-48q0 -25 -23 -25h-83q-25 0 -25 25v24q0 75 -102 75q-101 0 -101 -75v-322q0 -75 101 -75q102 0 102 75v38q0 25 25 25h83q23 0 23 -25v-62q0 -31 -11 -60t-37 -51.5t-69 -36.5t-108 -15l-10 -37h30z" />
    <glyph glyph-name="Egrave" unicode="&#xc8;" horiz-adv-x="512" 
d="M133 852q-8 11 -4.5 18.5t17.5 7.5h87q14 0 21.5 -7t12.5 -18l48 -98q11 -25 -12 -25h-65q-14 0 -21 5.5t-12 11.5zM94 0q-14 0 -19 6t-5 20v628q0 14 5 20t19 6h342q13 0 19 -5t6 -19v-63q0 -25 -25 -25h-231v-162h214q14 0 20 -5t6 -19v-60q0 -24 -26 -24h-214v-186
h241q14 0 19.5 -5t5.5 -19v-63q0 -25 -25 -25h-352z" />
    <glyph glyph-name="Eacute" unicode="&#xc9;" horiz-adv-x="512" 
d="M94 0q-14 0 -19 6t-5 20v628q0 14 5 20t19 6h342q13 0 19 -5t6 -19v-63q0 -25 -25 -25h-231v-162h214q14 0 20 -5t6 -19v-60q0 -24 -26 -24h-214v-186h241q14 0 19.5 -5t5.5 -19v-63q0 -25 -25 -25h-352zM315 747q-4 -5 -11 -11t-21 -6h-65q-11 0 -15.5 6t2.5 19l49 98
q5 11 12.5 18t21.5 7h87q14 0 17.5 -7t-4.5 -18z" />
    <glyph glyph-name="Ecircumflex" unicode="&#xca;" horiz-adv-x="512" 
d="M231 755q-5 -8 -13 -16.5t-21 -8.5h-64q-13 0 -17 7t4 18l73 98q8 11 16.5 18t22.5 7h48q13 0 22 -7t17 -18l73 -98q8 -11 4 -18t-17 -7h-64q-13 0 -21 7.5t-13 17.5l-25 45zM94 0q-14 0 -19 6t-5 20v628q0 14 5 20t19 6h342q13 0 19 -5t6 -19v-63q0 -25 -25 -25h-231
v-162h214q14 0 20 -5t6 -19v-60q0 -24 -26 -24h-214v-186h241q14 0 19.5 -5t5.5 -19v-63q0 -25 -25 -25h-352z" />
    <glyph glyph-name="Edieresis" unicode="&#xcb;" horiz-adv-x="512" 
d="M94 0q-14 0 -19 6t-5 20v628q0 14 5 20t19 6h342q13 0 19 -5t6 -19v-63q0 -25 -25 -25h-231v-162h214q14 0 20 -5t6 -19v-60q0 -24 -26 -24h-214v-186h241q14 0 19.5 -5t5.5 -19v-63q0 -25 -25 -25h-352zM242 757q0 -14 -5 -19.5t-19 -5.5h-49q-24 0 -24 25v93
q0 26 24 26h49q14 0 19 -6t5 -20v-93zM381 757q0 -25 -23 -25h-49q-14 0 -19 5.5t-5 19.5v93q0 14 5 20t19 6h49q23 0 23 -26v-93z" />
    <glyph glyph-name="Igrave" unicode="&#xcc;" horiz-adv-x="274" 
d="M205 26q0 -14 -5 -20t-19 -6h-87q-14 0 -19 6t-5 20v628q0 14 5 20t19 6h87q14 0 19 -6t5 -20v-628zM-1 852q-8 11 -4.5 18.5t17.5 7.5h87q14 0 21.5 -7t12.5 -18l48 -98q11 -25 -12 -25h-65q-14 0 -21 5.5t-12 11.5z" />
    <glyph glyph-name="Iacute" unicode="&#xcd;" horiz-adv-x="274" 
d="M205 26q0 -14 -5 -20t-19 -6h-87q-14 0 -19 6t-5 20v628q0 14 5 20t19 6h87q14 0 19 -6t5 -20v-628zM196 747q-4 -5 -11 -11t-21 -6h-65q-11 0 -15.5 6t2.5 19l49 98q5 11 12.5 18t21.5 7h87q14 0 17.5 -7t-4.5 -18z" />
    <glyph glyph-name="Icircumflex" unicode="&#xce;" horiz-adv-x="274" 
d="M205 26q0 -14 -5 -20t-19 -6h-87q-14 0 -19 6t-5 20v628q0 14 5 20t19 6h87q14 0 19 -6t5 -20v-628zM112 755q-5 -8 -13 -16.5t-21 -8.5h-64q-13 0 -17 7t4 18l73 98q8 11 16.5 18t22.5 7h48q13 0 22 -7t17 -18l73 -98q8 -11 4 -18t-17 -7h-64q-13 0 -21 7.5t-13 17.5
l-25 45z" />
    <glyph glyph-name="Idieresis" unicode="&#xcf;" horiz-adv-x="274" 
d="M205 26q0 -14 -5 -20t-19 -6h-87q-14 0 -19 6t-5 20v628q0 14 5 20t19 6h87q14 0 19 -6t5 -20v-628zM116 757q0 -14 -5 -19.5t-19 -5.5h-49q-24 0 -24 25v93q0 26 24 26h49q14 0 19 -6t5 -20v-93zM255 757q0 -25 -23 -25h-49q-14 0 -19 5.5t-5 19.5v93q0 14 5 20t19 6h49
q23 0 23 -26v-93z" />
    <glyph glyph-name="Eth" unicode="&#xd0;" horiz-adv-x="615" 
d="M91 0q-12 0 -16.5 6.5t-4.5 19.5v266h-42q-26 0 -26 25v51q0 23 26 23h42v263q0 14 5 20t19 6h218q68 0 114.5 -13.5t75.5 -36.5t41.5 -52.5t12.5 -60.5v-354q0 -32 -12.5 -61t-41.5 -52t-75.5 -36.5t-114.5 -13.5h-221zM205 568v-177h90q25 0 25 -23v-51q0 -25 -25 -25
h-90v-180h107q51 0 80 18.5t29 56.5v306q0 38 -29 56.5t-80 18.5h-107z" />
    <glyph glyph-name="Ntilde" unicode="&#xd1;" horiz-adv-x="625" 
d="M556 25q0 -13 -5 -19t-19 -6h-79q-10 0 -14.5 2.5t-8.5 9.5l-193 331q-20 33 -29.5 55t-10.5 25v-398q0 -13 -5 -19t-19 -6h-79q-14 0 -19 6t-5 19v630q0 13 5 19t19 6h79q15 0 21 -10l201 -345l12 -23t11 -23q5 -12 11 -24v400q0 13 5 19t19 6h79q14 0 19 -6t5 -19v-630
zM252 786q-19 0 -19 -25v-5q0 -14 -7 -18t-20 -4h-43q-24 0 -21 29l4 41q4 38 29 58t59 20q16 0 31.5 -4t26.5 -9l43 -21q11 -5 20.5 -10t16.5 -5q10 0 13.5 5.5t5.5 18.5l1 6q2 13 8.5 17.5t18.5 4.5h43q14 0 18 -8t3 -21l-3 -39q-3 -40 -27 -59t-56 -19q-19 0 -34.5 3.5
t-29.5 9.5l-43 19q-11 5 -20.5 10t-17.5 5z" />
    <glyph glyph-name="Ograve" unicode="&#xd2;" horiz-adv-x="605" 
d="M164 852q-8 11 -4.5 18.5t17.5 7.5h87q14 0 21.5 -7t12.5 -18l48 -98q11 -25 -12 -25h-65q-14 0 -21 5.5t-12 11.5zM59 525q0 31 12.5 60.5t41 52.5t75 36.5t114.5 13.5t114.5 -13.5t75 -36.5t41 -52.5t12.5 -60.5v-370q0 -32 -12.5 -61t-41 -52t-75 -36.5t-114.5 -13.5
t-114.5 13.5t-75 36.5t-41 52t-12.5 61v370zM410 501q0 38 -28.5 56.5t-79.5 18.5t-79 -18.5t-28 -56.5v-322q0 -38 28 -56.5t79 -18.5t79.5 18.5t28.5 56.5v322z" />
    <glyph glyph-name="Oacute" unicode="&#xd3;" horiz-adv-x="605" 
d="M352 747q-4 -5 -11 -11t-21 -6h-65q-11 0 -15.5 6t2.5 19l49 98q5 11 12.5 18t21.5 7h87q14 0 17.5 -7t-4.5 -18zM59 525q0 31 12.5 60.5t41 52.5t75 36.5t114.5 13.5t114.5 -13.5t75 -36.5t41 -52.5t12.5 -60.5v-370q0 -32 -12.5 -61t-41 -52t-75 -36.5t-114.5 -13.5
t-114.5 13.5t-75 36.5t-41 52t-12.5 61v370zM410 501q0 38 -28.5 56.5t-79.5 18.5t-79 -18.5t-28 -56.5v-322q0 -38 28 -56.5t79 -18.5t79.5 18.5t28.5 56.5v322z" />
    <glyph glyph-name="Ocircumflex" unicode="&#xd4;" horiz-adv-x="605" 
d="M277 755q-5 -8 -13 -16.5t-21 -8.5h-64q-13 0 -17 7t4 18l73 98q8 11 16.5 18t22.5 7h48q13 0 22 -7t17 -18l73 -98q8 -11 4 -18t-17 -7h-64q-13 0 -21 7.5t-13 17.5l-25 45zM59 525q0 31 12.5 60.5t41 52.5t75 36.5t114.5 13.5t114.5 -13.5t75 -36.5t41 -52.5
t12.5 -60.5v-370q0 -32 -12.5 -61t-41 -52t-75 -36.5t-114.5 -13.5t-114.5 13.5t-75 36.5t-41 52t-12.5 61v370zM410 501q0 38 -28.5 56.5t-79.5 18.5t-79 -18.5t-28 -56.5v-322q0 -38 28 -56.5t79 -18.5t79.5 18.5t28.5 56.5v322z" />
    <glyph glyph-name="Otilde" unicode="&#xd5;" horiz-adv-x="605" 
d="M59 525q0 31 12.5 60.5t41 52.5t75 36.5t114.5 13.5t114.5 -13.5t75 -36.5t41 -52.5t12.5 -60.5v-370q0 -32 -12.5 -61t-41 -52t-75 -36.5t-114.5 -13.5t-114.5 13.5t-75 36.5t-41 52t-12.5 61v370zM410 501q0 38 -28.5 56.5t-79.5 18.5t-79 -18.5t-28 -56.5v-322
q0 -38 28 -56.5t79 -18.5t79.5 18.5t28.5 56.5v322zM242 786q-19 0 -19 -25v-5q0 -14 -7 -18t-20 -4h-43q-24 0 -21 29l4 41q4 38 29 58t59 20q16 0 31.5 -4t26.5 -9l43 -21q11 -5 20.5 -10t16.5 -5q10 0 13.5 5.5t5.5 18.5l1 6q2 13 8.5 17.5t18.5 4.5h43q14 0 18 -8t3 -21
l-3 -39q-3 -40 -27 -59t-56 -19q-19 0 -34.5 3.5t-29.5 9.5l-43 19q-11 5 -20.5 10t-17.5 5z" />
    <glyph glyph-name="Odieresis" unicode="&#xd6;" horiz-adv-x="605" 
d="M59 525q0 31 12.5 60.5t41 52.5t75 36.5t114.5 13.5t114.5 -13.5t75 -36.5t41 -52.5t12.5 -60.5v-370q0 -32 -12.5 -61t-41 -52t-75 -36.5t-114.5 -13.5t-114.5 13.5t-75 36.5t-41 52t-12.5 61v370zM410 501q0 38 -28.5 56.5t-79.5 18.5t-79 -18.5t-28 -56.5v-322
q0 -38 28 -56.5t79 -18.5t79.5 18.5t28.5 56.5v322zM281 757q0 -14 -5 -19.5t-19 -5.5h-49q-24 0 -24 25v93q0 26 24 26h49q14 0 19 -6t5 -20v-93zM420 757q0 -25 -23 -25h-49q-14 0 -19 5.5t-5 19.5v93q0 14 5 20t19 6h49q23 0 23 -26v-93z" />
    <glyph glyph-name="multiply" unicode="&#xd7;" horiz-adv-x="541" 
d="M250 264l-122 -70q-12 -7 -19.5 -5t-14.5 14l-29 51q-12 22 10 34l122 70l-71 123q-7 12 -5 19.5t13 14.5l51 30q21 13 34 -10l71 -123l123 71q12 7 19.5 5t14.5 -13l29 -51q13 -23 -9 -35l-124 -71l71 -122q7 -12 5 -19.5t-14 -14.5l-51 -29q-12 -7 -19 -5t-14 14z" />
    <glyph glyph-name="Oslash" unicode="&#xd8;" horiz-adv-x="605" 
d="M59 524q0 31 12.5 60.5t41 52.5t75 36.5t114.5 13.5q42 0 74.5 -5.5t58.5 -14.5l9 17q5 11 12.5 20.5t21.5 9.5h28q14 0 13 -9.5t-6 -20.5l-24 -46q30 -23 43 -52.5t13 -61.5v-370q0 -32 -12.5 -61t-41 -52t-75 -36.5t-114.5 -13.5q-42 0 -75.5 5.5t-59.5 14.5l-8 -16
q-7 -14 -14.5 -22t-21.5 -8h-26q-11 0 -12.5 9t4.5 21l23 46q-29 23 -41 52t-12 61v370zM410 483l-186 -362q27 -18 78 -18t79.5 18.5t28.5 56.5v305zM195 201l184 357q-29 17 -77 17q-51 0 -79 -18.5t-28 -56.5v-299z" />
    <glyph glyph-name="Ugrave" unicode="&#xd9;" horiz-adv-x="615" 
d="M177 852q-8 11 -4.5 18.5t17.5 7.5h87q14 0 21.5 -7t12.5 -18l48 -98q11 -25 -12 -25h-65q-14 0 -21 5.5t-12 11.5zM200 179q0 -38 28 -56.5t79 -18.5t80 18.5t29 56.5v475q0 14 5 20t19 6h87q14 0 18.5 -6t4.5 -20v-499q0 -32 -12.5 -61t-41 -52t-75 -36.5t-114.5 -13.5
t-114.5 13.5t-75 36.5t-41 52t-12.5 61v499q0 26 25 26h87q24 0 24 -26v-475z" />
    <glyph glyph-name="Uacute" unicode="&#xda;" horiz-adv-x="615" 
d="M200 179q0 -38 28 -56.5t79 -18.5t80 18.5t29 56.5v475q0 14 5 20t19 6h87q14 0 18.5 -6t4.5 -20v-499q0 -32 -12.5 -61t-41 -52t-75 -36.5t-114.5 -13.5t-114.5 13.5t-75 36.5t-41 52t-12.5 61v499q0 26 25 26h87q24 0 24 -26v-475zM368 747q-4 -5 -11 -11t-21 -6h-65
q-11 0 -15.5 6t2.5 19l49 98q5 11 12.5 18t21.5 7h87q14 0 17.5 -7t-4.5 -18z" />
    <glyph glyph-name="Ucircumflex" unicode="&#xdb;" horiz-adv-x="615" 
d="M282 755q-5 -8 -13 -16.5t-21 -8.5h-64q-13 0 -17 7t4 18l73 98q8 11 16.5 18t22.5 7h48q13 0 22 -7t17 -18l73 -98q8 -11 4 -18t-17 -7h-64q-13 0 -21 7.5t-13 17.5l-25 45zM200 179q0 -38 28 -56.5t79 -18.5t80 18.5t29 56.5v475q0 14 5 20t19 6h87q14 0 18.5 -6
t4.5 -20v-499q0 -32 -12.5 -61t-41 -52t-75 -36.5t-114.5 -13.5t-114.5 13.5t-75 36.5t-41 52t-12.5 61v499q0 26 25 26h87q24 0 24 -26v-475z" />
    <glyph glyph-name="Udieresis" unicode="&#xdc;" horiz-adv-x="615" 
d="M200 179q0 -38 28 -56.5t79 -18.5t80 18.5t29 56.5v475q0 14 5 20t19 6h87q14 0 18.5 -6t4.5 -20v-499q0 -32 -12.5 -61t-41 -52t-75 -36.5t-114.5 -13.5t-114.5 13.5t-75 36.5t-41 52t-12.5 61v499q0 26 25 26h87q24 0 24 -26v-475zM286 757q0 -14 -5 -19.5t-19 -5.5
h-49q-24 0 -24 25v93q0 26 24 26h49q14 0 19 -6t5 -20v-93zM425 757q0 -25 -23 -25h-49q-14 0 -19 5.5t-5 19.5v93q0 14 5 20t19 6h49q23 0 23 -26v-93z" />
    <glyph glyph-name="Yacute" unicode="&#xdd;" horiz-adv-x="545" 
d="M256 427l17 -52q0 2 2 8.5l4.5 14t5.5 15.5t6 14l106 228q5 11 10.5 18t18.5 7h86q13 0 18.5 -6.5t-0.5 -18.5l-189 -395v-235q0 -13 -5 -19t-19 -6h-87q-25 0 -25 25v219l-190 411q-5 11 -0.5 18t17.5 7h99q13 0 19 -7t11 -18zM341 747q-4 -5 -11 -11t-21 -6h-65
q-11 0 -15.5 6t2.5 19l49 98q5 11 12.5 18t21.5 7h87q14 0 17.5 -7t-4.5 -18z" />
    <glyph glyph-name="Thorn" unicode="&#xde;" horiz-adv-x="580" 
d="M205 498h99q68 0 114 -13.5t74.5 -36.5t41 -52.5t12.5 -60.5v-85q0 -32 -12.5 -61t-41 -52t-74.5 -36.5t-114 -13.5h-99v-62q0 -13 -5 -19t-19 -6h-87q-14 0 -19 6t-5 19v630q0 13 5 19t19 6h87q14 0 19 -6t5 -19v-157zM205 387v-189h99q51 0 80 18.5t29 56.5v39
q0 38 -29 56.5t-80 18.5h-99z" />
    <glyph glyph-name="germandbls" unicode="&#xdf;" horiz-adv-x="641" 
d="M229 26q0 -14 -5 -20t-19 -6h-83q-25 0 -25 26v366h-54q-24 0 -24 25v50q0 13 6 18t18 6l51 5h3v64q0 66 55.5 107t172.5 41q58 0 100 -10.5t69 -30t39.5 -46.5t12.5 -61v-35q0 -34 -20.5 -57t-48.5 -35l-67 -29l-18.5 -9.5t-8.5 -16.5v-2q0 -13 11.5 -20.5t20.5 -11.5
l116 -53q14 -6 30 -16.5t29 -24.5t21.5 -31t8.5 -38v-45q0 -32 -9 -58t-30 -45.5t-55.5 -30t-84.5 -10.5t-83 9.5t-52 27.5t-26.5 43.5t-7.5 58.5v5q0 25 24 25h57q25 0 25 -25v-10q0 -26 14 -38.5t47 -12.5t47.5 13t14.5 38v32q0 18 -13.5 26.5t-24.5 13.5l-107 47
q-35 15 -58.5 40.5t-23.5 74.5v20q0 33 19.5 55t45.5 33l46 20q39 17 39 48v17q0 28 -22 44.5t-76 16.5q-53 0 -75 -16.5t-22 -44.5v-527z" />
    <glyph glyph-name="agrave" unicode="&#xe0;" horiz-adv-x="517" 
d="M60 362q0 67 47.5 105.5t154.5 38.5q109 0 155 -38.5t46 -105.5v-336q0 -26 -24 -26h-75q-14 0 -18 6t-6 20l-2 21q-22 -18 -58.5 -36.5t-89.5 -18.5q-37 0 -64 10t-45 27.5t-26.5 40t-8.5 47.5v45q0 25 9.5 48t28.5 40t47 27.5t65 10.5h138v64q0 27 -15.5 41.5
t-59.5 14.5q-43 0 -60 -12.5t-17 -39.5v-7q0 -25 -24 -25h-74q-14 0 -19 5.5t-5 19.5v13zM224 96q35 0 64 15t46 28v57h-112q-29 0 -38.5 -12.5t-9.5 -32.5v-16q0 -23 13.5 -31t36.5 -8zM142 683q-8 11 -4.5 18t16.5 7h87q14 0 22 -7t13 -18l48 -98q11 -25 -13 -25h-65
q-13 0 -20.5 6t-11.5 11z" />
    <glyph glyph-name="aacute" unicode="&#xe1;" horiz-adv-x="517" 
d="M60 362q0 67 47.5 105.5t154.5 38.5q109 0 155 -38.5t46 -105.5v-336q0 -26 -24 -26h-75q-14 0 -18 6t-6 20l-2 21q-22 -18 -58.5 -36.5t-89.5 -18.5q-37 0 -64 10t-45 27.5t-26.5 40t-8.5 47.5v45q0 25 9.5 48t28.5 40t47 27.5t65 10.5h138v64q0 27 -15.5 41.5
t-59.5 14.5q-43 0 -60 -12.5t-17 -39.5v-7q0 -25 -24 -25h-74q-14 0 -19 5.5t-5 19.5v13zM224 96q35 0 64 15t46 28v57h-112q-29 0 -38.5 -12.5t-9.5 -32.5v-16q0 -23 13.5 -31t36.5 -8zM305 577q-4 -5 -11.5 -11t-20.5 -6h-65q-24 0 -13 25l48 98q5 11 13 18t22 7h87
q13 0 16.5 -7t-4.5 -18z" />
    <glyph glyph-name="acircumflex" unicode="&#xe2;" horiz-adv-x="517" 
d="M60 362q0 67 47.5 105.5t154.5 38.5q109 0 155 -38.5t46 -105.5v-336q0 -26 -24 -26h-75q-14 0 -18 6t-6 20l-2 21q-22 -18 -58.5 -36.5t-89.5 -18.5q-37 0 -64 10t-45 27.5t-26.5 40t-8.5 47.5v45q0 25 9.5 48t28.5 40t47 27.5t65 10.5h138v64q0 27 -15.5 41.5
t-59.5 14.5q-43 0 -60 -12.5t-17 -39.5v-7q0 -25 -24 -25h-74q-14 0 -19 5.5t-5 19.5v13zM224 96q35 0 64 15t46 28v57h-112q-29 0 -38.5 -12.5t-9.5 -32.5v-16q0 -23 13.5 -31t36.5 -8zM236 585q-5 -8 -13 -16.5t-21 -8.5h-64q-13 0 -17 7t4 18l73 98q8 11 16.5 18t22.5 7
h48q13 0 22 -7t17 -18l73 -98q8 -11 4 -18t-17 -7h-64q-13 0 -21 7.5t-13 17.5l-25 45z" />
    <glyph glyph-name="atilde" unicode="&#xe3;" horiz-adv-x="517" 
d="M60 362q0 67 47.5 105.5t154.5 38.5q109 0 155 -38.5t46 -105.5v-336q0 -26 -24 -26h-75q-14 0 -18 6t-6 20l-2 21q-22 -18 -58.5 -36.5t-89.5 -18.5q-37 0 -64 10t-45 27.5t-26.5 40t-8.5 47.5v45q0 25 9.5 48t28.5 40t47 27.5t65 10.5h138v64q0 27 -15.5 41.5
t-59.5 14.5q-43 0 -60 -12.5t-17 -39.5v-7q0 -25 -24 -25h-74q-14 0 -19 5.5t-5 19.5v13zM224 96q35 0 64 15t46 28v57h-112q-29 0 -38.5 -12.5t-9.5 -32.5v-16q0 -23 13.5 -31t36.5 -8zM204 607q-10 0 -13.5 -5.5t-5.5 -18.5l-1 -6q-2 -13 -8 -17.5t-18 -4.5h-44
q-13 0 -17.5 8t-2.5 21l4 42q4 38 29 57.5t58 19.5t59 -13l42 -20q11 -5 20.5 -10t17.5 -5q19 0 19 24v5q0 13 7.5 17.5t19.5 4.5h43q14 0 18 -7.5t3 -21.5l-3 -39q-3 -40 -27 -59t-55 -19q-20 0 -35 3.5t-29 9.5l-43 19q-12 5 -21.5 10t-16.5 5z" />
    <glyph glyph-name="adieresis" unicode="&#xe4;" horiz-adv-x="517" 
d="M60 362q0 67 47.5 105.5t154.5 38.5q109 0 155 -38.5t46 -105.5v-336q0 -26 -24 -26h-75q-14 0 -18 6t-6 20l-2 21q-22 -18 -58.5 -36.5t-89.5 -18.5q-37 0 -64 10t-45 27.5t-26.5 40t-8.5 47.5v45q0 25 9.5 48t28.5 40t47 27.5t65 10.5h138v64q0 27 -15.5 41.5
t-59.5 14.5q-43 0 -60 -12.5t-17 -39.5v-7q0 -25 -24 -25h-74q-14 0 -19 5.5t-5 19.5v13zM224 96q35 0 64 15t46 28v57h-112q-29 0 -38.5 -12.5t-9.5 -32.5v-16q0 -23 13.5 -31t36.5 -8zM239 588q0 -25 -23 -25h-49q-14 0 -19 5.5t-5 19.5v93q0 14 5 19.5t19 5.5h49
q23 0 23 -25v-93zM379 588q0 -25 -23 -25h-49q-25 0 -25 25v93q0 25 25 25h49q23 0 23 -25v-93z" />
    <glyph glyph-name="aring" unicode="&#xe5;" horiz-adv-x="517" 
d="M60 362q0 67 47.5 105.5t154.5 38.5q109 0 155 -38.5t46 -105.5v-336q0 -26 -24 -26h-75q-14 0 -18 6t-6 20l-2 21q-22 -18 -58.5 -36.5t-89.5 -18.5q-37 0 -64 10t-45 27.5t-26.5 40t-8.5 47.5v45q0 25 9.5 48t28.5 40t47 27.5t65 10.5h138v64q0 27 -15.5 41.5
t-59.5 14.5q-43 0 -60 -12.5t-17 -39.5v-7q0 -25 -24 -25h-74q-14 0 -19 5.5t-5 19.5v13zM224 96q35 0 64 15t46 28v57h-112q-29 0 -38.5 -12.5t-9.5 -32.5v-16q0 -23 13.5 -31t36.5 -8zM374 620q0 -31 -26.5 -53.5t-83.5 -22.5q-58 0 -84.5 22.5t-26.5 53.5v34
q0 31 26.5 53.5t84.5 22.5q57 0 83.5 -22.5t26.5 -53.5v-34zM304 644q0 30 -40 30q-41 0 -41 -30v-15q0 -30 41 -30q40 0 40 30v15z" />
    <glyph glyph-name="ae" unicode="&#xe6;" horiz-adv-x="785" 
d="M741 245q0 -23 -23 -23h-256v-79q0 -26 17.5 -40t60.5 -14t60.5 14.5t17.5 40.5v7q0 24 25 24h69q25 0 25 -24v-12q0 -33 -10.5 -60.5t-33.5 -46.5t-60.5 -29.5t-92.5 -10.5q-71 0 -114 16.5t-64 45.5q-12 -9 -29.5 -20t-39 -20.5t-47.5 -15.5t-56 -6q-38 0 -65 10
t-45 27.5t-26.5 40t-8.5 47.5v43q0 25 10 47.5t29 40t47 27.5t65 10h138v74q0 25 -17 38.5t-58 13.5q-43 0 -60 -12.5t-17 -39.5v-10q0 -14 -5.5 -19t-19.5 -5h-73q-14 0 -19.5 5t-5.5 19v14q0 67 47.5 105t154.5 38q53 0 85 -12.5t50 -32.5q21 20 55.5 32.5t88.5 12.5
q109 0 155 -40t46 -107v-114zM224 94q35 0 64 16.5t46 29.5v57h-114q-27 0 -37 -13.5t-10 -30.5v-19q0 -22 15 -31t36 -9zM462 309h156v44q0 26 -17.5 41t-60.5 15t-60.5 -15t-17.5 -41v-44z" />
    <glyph glyph-name="ccedilla" unicode="&#xe7;" horiz-adv-x="492" 
d="M282 -45q39 0 63.5 -19.5t24.5 -62.5q0 -44 -24.5 -64t-63.5 -20h-119q-25 0 -25 25v20q0 14 5.5 19t19.5 5h98q19 0 19 15q0 16 -19 16h-75q-23 0 -29.5 9t-1.5 24l22 77q-69 13 -98.5 50t-29.5 91v219q0 67 48 107t158 40q109 0 157 -40t48 -107v-17q0 -14 -5.5 -19
t-18.5 -5h-77q-14 0 -19.5 5t-5.5 19v7q0 28 -17 40.5t-60 12.5t-60 -12.5t-17 -40.5v-199q0 -28 17 -41t60 -13t60 13t17 41v15q0 25 25 25h77q24 0 24 -25v-25q0 -67 -46.5 -107t-151.5 -41l-10 -37h30z" />
    <glyph glyph-name="egrave" unicode="&#xe8;" horiz-adv-x="500" 
d="M455 243q0 -23 -22 -23h-256v-74q0 -26 16.5 -40.5t61.5 -14.5t61.5 14.5t16.5 40.5v5q0 25 25 25h70q25 0 25 -25v-11q0 -34 -10.5 -61t-34 -46.5t-61.5 -30t-93 -10.5q-110 0 -157.5 40t-47.5 108v219q0 67 48 107t158 40q55 0 93 -10.5t62 -29.5t34.5 -46.5
t10.5 -60.5v-116zM177 308h156v44q0 26 -18 40.5t-60 14.5q-43 0 -60.5 -14.5t-17.5 -40.5v-44zM123 683q-8 11 -4.5 18t16.5 7h87q14 0 22 -7t13 -18l48 -98q11 -25 -13 -25h-65q-13 0 -20.5 6t-11.5 11z" />
    <glyph glyph-name="eacute" unicode="&#xe9;" horiz-adv-x="500" 
d="M304 577q-4 -5 -11.5 -11t-20.5 -6h-65q-24 0 -13 25l48 98q5 11 13 18t22 7h87q13 0 16.5 -7t-4.5 -18zM455 243q0 -23 -22 -23h-256v-74q0 -26 16.5 -40.5t61.5 -14.5t61.5 14.5t16.5 40.5v5q0 25 25 25h70q25 0 25 -25v-11q0 -34 -10.5 -61t-34 -46.5t-61.5 -30
t-93 -10.5q-110 0 -157.5 40t-47.5 108v219q0 67 48 107t158 40q55 0 93 -10.5t62 -29.5t34.5 -46.5t10.5 -60.5v-116zM177 308h156v44q0 26 -18 40.5t-60 14.5q-43 0 -60.5 -14.5t-17.5 -40.5v-44z" />
    <glyph glyph-name="ecircumflex" unicode="&#xea;" horiz-adv-x="500" 
d="M230 585q-5 -8 -13 -16.5t-21 -8.5h-64q-13 0 -17 7t4 18l73 98q8 11 16.5 18t22.5 7h48q13 0 22 -7t17 -18l73 -98q8 -11 4 -18t-17 -7h-64q-13 0 -21 7.5t-13 17.5l-25 45zM455 243q0 -23 -22 -23h-256v-74q0 -26 16.5 -40.5t61.5 -14.5t61.5 14.5t16.5 40.5v5
q0 25 25 25h70q25 0 25 -25v-11q0 -34 -10.5 -61t-34 -46.5t-61.5 -30t-93 -10.5q-110 0 -157.5 40t-47.5 108v219q0 67 48 107t158 40q55 0 93 -10.5t62 -29.5t34.5 -46.5t10.5 -60.5v-116zM177 308h156v44q0 26 -18 40.5t-60 14.5q-43 0 -60.5 -14.5t-17.5 -40.5v-44z" />
    <glyph glyph-name="edieresis" unicode="&#xeb;" horiz-adv-x="500" 
d="M231 588q0 -25 -23 -25h-49q-14 0 -19 5.5t-5 19.5v93q0 14 5 19.5t19 5.5h49q23 0 23 -25v-93zM371 588q0 -25 -23 -25h-49q-25 0 -25 25v93q0 25 25 25h49q23 0 23 -25v-93zM455 243q0 -23 -22 -23h-256v-74q0 -26 16.5 -40.5t61.5 -14.5t61.5 14.5t16.5 40.5v5
q0 25 25 25h70q25 0 25 -25v-11q0 -34 -10.5 -61t-34 -46.5t-61.5 -30t-93 -10.5q-110 0 -157.5 40t-47.5 108v219q0 67 48 107t158 40q55 0 93 -10.5t62 -29.5t34.5 -46.5t10.5 -60.5v-116zM177 308h156v44q0 26 -18 40.5t-60 14.5q-43 0 -60.5 -14.5t-17.5 -40.5v-44z" />
    <glyph glyph-name="igrave" unicode="&#xec;" horiz-adv-x="250" 
d="M190 25q0 -25 -23 -25h-83q-25 0 -25 25v448q0 25 25 25h83q23 0 23 -25v-448zM-10 683q-8 11 -4.5 18t16.5 7h87q14 0 22 -7t13 -18l48 -98q11 -25 -13 -25h-65q-13 0 -20.5 6t-11.5 11z" />
    <glyph glyph-name="iacute" unicode="&#xed;" horiz-adv-x="250" 
d="M185 577q-4 -5 -11.5 -11t-20.5 -6h-65q-24 0 -13 25l48 98q5 11 13 18t22 7h87q13 0 16.5 -7t-4.5 -18zM190 25q0 -25 -23 -25h-83q-25 0 -25 25v448q0 25 25 25h83q23 0 23 -25v-448z" />
    <glyph glyph-name="icircumflex" unicode="&#xee;" horiz-adv-x="250" 
d="M103 585q-5 -8 -13 -16.5t-21 -8.5h-64q-13 0 -17 7t4 18l73 98q8 11 16.5 18t22.5 7h48q13 0 22 -7t17 -18l73 -98q8 -11 4 -18t-17 -7h-64q-13 0 -21 7.5t-13 17.5l-25 45zM190 25q0 -25 -23 -25h-83q-25 0 -25 25v448q0 25 25 25h83q23 0 23 -25v-448z" />
    <glyph glyph-name="idieresis" unicode="&#xef;" horiz-adv-x="250" 
d="M104 588q0 -25 -23 -25h-49q-14 0 -19 5.5t-5 19.5v93q0 14 5 19.5t19 5.5h49q23 0 23 -25v-93zM244 588q0 -25 -23 -25h-49q-25 0 -25 25v93q0 25 25 25h49q23 0 23 -25v-93zM190 25q0 -25 -23 -25h-83q-25 0 -25 25v448q0 25 25 25h83q23 0 23 -25v-448z" />
    <glyph glyph-name="eth" unicode="&#xf0;" horiz-adv-x="568" 
d="M323 606q-17 11 -56 11h-97q-26 0 -26 25v42q0 24 26 24h97q57 0 96 -11.5t64 -31.5l44 24q9 5 18.5 3.5t15.5 -12.5l9 -15q12 -19 -10 -32l-39 -22q5 -11 6.5 -23.5t1.5 -26.5v-422q0 -67 -49 -107t-159 -40q-111 0 -163.5 40t-52.5 107v221q0 67 35 106.5t110 39.5
q29 0 53 -5.5t43 -13.5t34 -17.5t26 -17.5v82q0 5 -3 10l-35 -17q-22 -12 -34 9l-9 15q-12 20 10 32zM350 347q-8 6 -20 14t-27 15t-32.5 12t-35.5 5t-28.5 -4.5t-16.5 -12t-8 -17t-2 -19.5v-190q0 -55 85 -55t85 55v197z" />
    <glyph glyph-name="ntilde" unicode="&#xf1;" horiz-adv-x="546" 
d="M161 498q14 0 18.5 -5.5t5.5 -18.5l2 -24q10 9 25 18.5t35 18t45 14t55 5.5q69 0 107 -37.5t38 -96.5v-346q0 -26 -25 -26h-81q-26 0 -26 26v313q0 27 -11 40t-43 13q-19 0 -36.5 -5t-32.5 -11.5t-27 -14.5t-20 -14v-321q0 -26 -23 -26h-83q-25 0 -25 26v448q0 24 25 24
h77zM211 615q-10 0 -13.5 -5.5t-5.5 -18.5l-1 -6q-2 -13 -8 -17.5t-18 -4.5h-44q-13 0 -17.5 8t-2.5 21l4 42q4 38 29 57.5t58 19.5t59 -13l42 -20q11 -5 20.5 -10t17.5 -5q19 0 19 24v5q0 13 7.5 17.5t19.5 4.5h43q14 0 18 -7.5t3 -21.5l-3 -39q-3 -40 -27 -59t-55 -19
q-20 0 -35 3.5t-29 9.5l-43 19q-12 5 -21.5 10t-16.5 5z" />
    <glyph glyph-name="ograve" unicode="&#xf2;" horiz-adv-x="530" 
d="M49 359q0 67 52.5 107t163.5 40t163.5 -40t52.5 -107v-219q0 -68 -52.5 -108t-163.5 -40t-163.5 40t-52.5 108v219zM350 348q0 54 -85 54t-85 -54v-197q0 -55 85 -55t85 55v197zM135 683q-8 11 -4.5 18t16.5 7h87q14 0 22 -7t13 -18l48 -98q11 -25 -13 -25h-65
q-13 0 -20.5 6t-11.5 11z" />
    <glyph glyph-name="oacute" unicode="&#xf3;" horiz-adv-x="530" 
d="M322 577q-4 -5 -11.5 -11t-20.5 -6h-65q-24 0 -13 25l48 98q5 11 13 18t22 7h87q13 0 16.5 -7t-4.5 -18zM49 359q0 67 52.5 107t163.5 40t163.5 -40t52.5 -107v-219q0 -68 -52.5 -108t-163.5 -40t-163.5 40t-52.5 108v219zM350 348q0 54 -85 54t-85 -54v-197
q0 -55 85 -55t85 55v197z" />
    <glyph glyph-name="ocircumflex" unicode="&#xf4;" horiz-adv-x="530" 
d="M242 585q-5 -8 -13 -16.5t-21 -8.5h-64q-13 0 -17 7t4 18l73 98q8 11 16.5 18t22.5 7h48q13 0 22 -7t17 -18l73 -98q8 -11 4 -18t-17 -7h-64q-13 0 -21 7.5t-13 17.5l-25 45zM49 359q0 67 52.5 107t163.5 40t163.5 -40t52.5 -107v-219q0 -68 -52.5 -108t-163.5 -40
t-163.5 40t-52.5 108v219zM350 348q0 54 -85 54t-85 -54v-197q0 -55 85 -55t85 55v197z" />
    <glyph glyph-name="otilde" unicode="&#xf5;" horiz-adv-x="530" 
d="M49 359q0 67 52.5 107t163.5 40t163.5 -40t52.5 -107v-219q0 -68 -52.5 -108t-163.5 -40t-163.5 40t-52.5 108v219zM350 348q0 54 -85 54t-85 -54v-197q0 -55 85 -55t85 55v197zM207 607q-10 0 -13.5 -5.5t-5.5 -18.5l-1 -6q-2 -13 -8 -17.5t-18 -4.5h-44q-13 0 -17.5 8
t-2.5 21l4 42q4 38 29 57.5t58 19.5t59 -13l42 -20q11 -5 20.5 -10t17.5 -5q19 0 19 24v5q0 13 7.5 17.5t19.5 4.5h43q14 0 18 -7.5t3 -21.5l-3 -39q-3 -40 -27 -59t-55 -19q-20 0 -35 3.5t-29 9.5l-43 19q-12 5 -21.5 10t-16.5 5z" />
    <glyph glyph-name="odieresis" unicode="&#xf6;" horiz-adv-x="530" 
d="M245 588q0 -25 -23 -25h-49q-14 0 -19 5.5t-5 19.5v93q0 14 5 19.5t19 5.5h49q23 0 23 -25v-93zM385 588q0 -25 -23 -25h-49q-25 0 -25 25v93q0 25 25 25h49q23 0 23 -25v-93zM49 359q0 67 52.5 107t163.5 40t163.5 -40t52.5 -107v-219q0 -68 -52.5 -108t-163.5 -40
t-163.5 40t-52.5 108v219zM350 348q0 54 -85 54t-85 -54v-197q0 -55 85 -55t85 55v197z" />
    <glyph glyph-name="divide" unicode="&#xf7;" horiz-adv-x="581" 
d="M496 352q13 0 19 -5t6 -19v-60q0 -24 -25 -24h-412q-25 0 -25 24v60q0 14 6 19t19 5h412zM357 80q0 -14 -5 -19.5t-19 -5.5h-85q-25 0 -25 25v81q0 25 25 25h85q14 0 19 -5.5t5 -19.5v-81zM357 436q0 -14 -5 -19.5t-19 -5.5h-85q-25 0 -25 25v81q0 25 25 25h85
q14 0 19 -5.5t5 -19.5v-81z" />
    <glyph glyph-name="oslash" unicode="&#xf8;" horiz-adv-x="530" 
d="M49 359q0 67 52.5 107t163.5 40q56 0 98 -11l6 10q6 11 13 20.5t21 9.5h28q14 0 13.5 -9t-7.5 -21l-18 -34q62 -38 62 -112v-219q0 -68 -52.5 -108t-163.5 -40q-56 0 -100 11l-4 -7q-8 -16 -14.5 -23t-22.5 -7h-25q-13 0 -12 10.5t6 19.5l17 31q-61 39 -61 113v219z
M350 344l-132 -243q10 -3 21.5 -4t25.5 -1q85 0 85 55v193zM180 156l130 240q-18 6 -45 6q-85 0 -85 -54v-192z" />
    <glyph glyph-name="ugrave" unicode="&#xf9;" horiz-adv-x="540" 
d="M352 47q-10 -9 -24 -18.5t-33 -17.5t-43 -13.5t-54 -5.5q-69 0 -106.5 37.5t-37.5 96.5v347q0 25 24 25h82q25 0 25 -25v-314q0 -27 11 -40t43 -13q37 0 66 16t44 28v323q0 14 5 19.5t19 5.5h83q24 0 24 -25v-448q0 -25 -24 -25h-77q-14 0 -18.5 5.5t-6.5 19.5zM136 683
q-8 11 -4.5 18t16.5 7h87q14 0 22 -7t13 -18l48 -98q11 -25 -13 -25h-65q-13 0 -20.5 6t-11.5 11z" />
    <glyph glyph-name="uacute" unicode="&#xfa;" horiz-adv-x="540" 
d="M324 577q-4 -5 -11.5 -11t-20.5 -6h-65q-24 0 -13 25l48 98q5 11 13 18t22 7h87q13 0 16.5 -7t-4.5 -18zM352 47q-10 -9 -24 -18.5t-33 -17.5t-43 -13.5t-54 -5.5q-69 0 -106.5 37.5t-37.5 96.5v347q0 25 24 25h82q25 0 25 -25v-314q0 -27 11 -40t43 -13q37 0 66 16
t44 28v323q0 14 5 19.5t19 5.5h83q24 0 24 -25v-448q0 -25 -24 -25h-77q-14 0 -18.5 5.5t-6.5 19.5z" />
    <glyph glyph-name="ucircumflex" unicode="&#xfb;" horiz-adv-x="540" 
d="M232 585q-5 -8 -13 -16.5t-21 -8.5h-64q-13 0 -17 7t4 18l73 98q8 11 16.5 18t22.5 7h48q13 0 22 -7t17 -18l73 -98q8 -11 4 -18t-17 -7h-64q-13 0 -21 7.5t-13 17.5l-25 45zM352 47q-10 -9 -24 -18.5t-33 -17.5t-43 -13.5t-54 -5.5q-69 0 -106.5 37.5t-37.5 96.5v347
q0 25 24 25h82q25 0 25 -25v-314q0 -27 11 -40t43 -13q37 0 66 16t44 28v323q0 14 5 19.5t19 5.5h83q24 0 24 -25v-448q0 -25 -24 -25h-77q-14 0 -18.5 5.5t-6.5 19.5z" />
    <glyph glyph-name="udieresis" unicode="&#xfc;" horiz-adv-x="540" 
d="M244 588q0 -25 -23 -25h-49q-14 0 -19 5.5t-5 19.5v93q0 14 5 19.5t19 5.5h49q23 0 23 -25v-93zM384 588q0 -25 -23 -25h-49q-25 0 -25 25v93q0 25 25 25h49q23 0 23 -25v-93zM352 47q-10 -9 -24 -18.5t-33 -17.5t-43 -13.5t-54 -5.5q-69 0 -106.5 37.5t-37.5 96.5v347
q0 25 24 25h82q25 0 25 -25v-314q0 -27 11 -40t43 -13q37 0 66 16t44 28v323q0 14 5 19.5t19 5.5h83q24 0 24 -25v-448q0 -25 -24 -25h-77q-14 0 -18.5 5.5t-6.5 19.5z" />
    <glyph glyph-name="yacute" unicode="&#xfd;" horiz-adv-x="474" 
d="M220 244q4 -13 7 -27t5 -26l3.5 -20.5t1.5 -10.5q0 1 2 9.5l5 20.5l6.5 25t7.5 25l79 233q4 12 9 18.5t18 6.5h76q14 0 21.5 -6.5t2.5 -18.5l-221 -649q-3 -10 -8.5 -17.5t-19.5 -7.5h-60q-14 0 -21 6t-3 19l49 163l-169 486q-5 12 2.5 18.5t20.5 6.5h83q14 0 19 -7
t9 -18zM301 577q-4 -5 -11.5 -11t-20.5 -6h-65q-24 0 -13 25l48 98q5 11 13 18t22 7h87q13 0 16.5 -7t-4.5 -18z" />
    <glyph glyph-name="thorn" unicode="&#xfe;" horiz-adv-x="540" 
d="M190 452q11 8 26 17.5t34 17.5t43 13.5t53 5.5q75 0 110.5 -39.5t35.5 -106.5v-222q0 -67 -35.5 -106.5t-110.5 -39.5q-29 0 -53 5.5t-43 13.5t-34 17t-26 17v-221q0 -25 -23 -25h-83q-25 0 -25 25v850q0 25 25 25h82q14 0 19 -6t5 -19v-222zM360 340q0 10 -2 19.5t-8 17
t-16.5 12t-27.5 4.5q-19 0 -36.5 -5t-32.5 -12t-27 -15t-20 -14v-196q8 -6 20 -14t27 -15t32.5 -12t36.5 -5q17 0 27.5 4.5t16.5 12t8 17t2 19.5v182z" />
    <glyph glyph-name="ydieresis" unicode="&#xff;" horiz-adv-x="474" 
d="M220 244q4 -13 7 -27t5 -26l3.5 -20.5t1.5 -10.5q0 1 2 9.5l5 20.5l6.5 25t7.5 25l79 233q4 12 9 18.5t18 6.5h76q14 0 21.5 -6.5t2.5 -18.5l-221 -649q-3 -10 -8.5 -17.5t-19.5 -7.5h-60q-14 0 -21 6t-3 19l49 163l-169 486q-5 12 2.5 18.5t20.5 6.5h83q14 0 19 -7
t9 -18zM218 588q0 -25 -23 -25h-49q-14 0 -19 5.5t-5 19.5v93q0 14 5 19.5t19 5.5h49q23 0 23 -25v-93zM358 588q0 -25 -23 -25h-49q-25 0 -25 25v93q0 25 25 25h49q23 0 23 -25v-93z" />
    <glyph glyph-name="OE" unicode="&#x152;" horiz-adv-x="852" 
d="M59 525q0 31 12.5 60.5t41 52.5t75 36.5t114.5 13.5q33 0 59.5 -6t49.5 -16q5 14 24 14h341q14 0 20 -5t6 -19v-63q0 -24 -26 -24h-231v-163h215q13 0 19 -5t6 -19v-59q0 -14 -6 -19t-19 -5h-215v-188h242q14 0 19.5 -5t5.5 -19v-63q0 -24 -25 -24h-353q-20 0 -23 14
q-23 -11 -49.5 -16.5t-59.5 -5.5q-68 0 -114.5 13.5t-75 36.5t-41 52t-12.5 61v370zM410 502q0 38 -28.5 56.5t-79.5 18.5t-79.5 -18.5t-28.5 -56.5v-324q0 -38 28.5 -56.5t79.5 -18.5q49 0 77.5 18t30.5 53v328z" />
    <glyph glyph-name="oe" unicode="&#x153;" horiz-adv-x="801" 
d="M49 359q0 67 52.5 107t163.5 40q51 0 85 -8.5t57 -25.5q51 34 149 34q109 0 155 -40t46 -107v-114q0 -23 -23 -23h-256v-78q0 -26 17.5 -40.5t60.5 -14.5t60.5 14.5t17.5 40.5v7q0 24 25 24h69q25 0 25 -24v-12q0 -33 -10.5 -60.5t-33.5 -46.5t-60.5 -29.5t-92.5 -10.5
q-51 0 -87.5 8.5t-61.5 24.5q-23 -16 -57 -24.5t-85 -8.5q-111 0 -163.5 40t-52.5 107v220zM350 348q0 55 -85 55t-85 -55v-198q0 -55 85 -55t85 55v198zM478 309h156v44q0 26 -17.5 41t-60.5 15t-60.5 -15t-17.5 -41v-44z" />
    <glyph glyph-name="Scaron" unicode="&#x160;" horiz-adv-x="572" 
d="M389 507q0 72 -97 72q-98 0 -98 -72v-15q0 -26 14.5 -37.5t26.5 -16.5l174 -62q51 -18 84.5 -53t33.5 -91v-77q0 -32 -12 -61t-40 -52t-73.5 -36.5t-112.5 -13.5t-112.5 13.5t-73.5 36.5t-40.5 52t-12.5 61v63q0 26 24 26h84q14 0 19 -6t5 -20v-45q0 -37 27.5 -54.5
t78.5 -17.5t78.5 17.5t27.5 54.5v32q0 15 -7 26.5t-18.5 19.5t-27 15t-32.5 13l-155 58q-18 7 -34.5 19.5t-29 29.5t-20 37t-7.5 43v59q0 31 11 60.5t37 52.5t69.5 36.5t109.5 13.5t110 -13.5t71 -36.5t38.5 -52.5t11.5 -60.5v-41q0 -25 -25 -25h-84q-23 0 -23 25v23z
M287 808l25 46q5 8 13 16t21 8h64q13 0 17 -7t-4 -17l-73 -99q-8 -11 -17 -18t-22 -7h-48q-14 0 -22.5 7.5t-16.5 18.5l-73 98q-8 10 -4 17t17 7h64q13 0 21 -8t13 -16z" />
    <glyph glyph-name="scaron" unicode="&#x161;" horiz-adv-x="472" 
d="M240 638l25 46q5 8 13 16t21 8h64q13 0 17 -7t-4 -17l-73 -99q-8 -11 -17 -18t-22 -7h-48q-14 0 -22.5 7.5t-16.5 18.5l-73 98q-8 10 -4 17t17 7h64q13 0 21 -8t13 -16zM314 373q0 23 -20.5 32t-52.5 9t-52 -9t-20 -32v-11q0 -15 10 -23t21 -12l144 -51
q47 -17 71.5 -42.5t24.5 -61.5v-51q0 -24 -11 -47t-35.5 -41.5t-63 -29.5t-92.5 -11t-92 11t-62 29.5t-35 41.5t-11 47v23q0 23 23 23h74q23 0 23 -23v-17q0 -23 23 -32.5t57 -9.5t57.5 9.5t23.5 32.5v17q0 13 -10.5 21t-34.5 17l-145 53q-14 5 -28 15.5t-25.5 24
t-18.5 30.5t-7 36v32q0 24 9.5 48t32 42.5t59.5 30.5t91 12t90.5 -12t59 -30.5t32 -42.5t9.5 -48v-19q0 -13 -4.5 -18t-18.5 -5h-74q-22 0 -22 23v19z" />
    <glyph glyph-name="Ydieresis" unicode="&#x178;" horiz-adv-x="545" 
d="M256 427l17 -52q0 2 2 8.5l4.5 14t5.5 15.5t6 14l106 228q5 11 10.5 18t18.5 7h86q13 0 18.5 -6.5t-0.5 -18.5l-189 -395v-235q0 -13 -5 -19t-19 -6h-87q-25 0 -25 25v219l-190 411q-5 11 -0.5 18t17.5 7h99q13 0 19 -7t11 -18zM251 757q0 -14 -5 -19.5t-19 -5.5h-49
q-24 0 -24 25v93q0 26 24 26h49q14 0 19 -6t5 -20v-93zM390 757q0 -25 -23 -25h-49q-14 0 -19 5.5t-5 19.5v93q0 14 5 20t19 6h49q23 0 23 -26v-93z" />
    <glyph glyph-name="Zcaron" unicode="&#x17d;" horiz-adv-x="497" 
d="M252 812l25 46q5 8 13 16t21 8h64q13 0 17 -7t-4 -17l-73 -99q-8 -11 -17 -18t-22 -7h-48q-14 0 -22.5 7.5t-16.5 18.5l-73 98q-8 10 -4 17t17 7h64q13 0 21 -8t13 -16zM431 680q14 0 20 -5t6 -19v-62q0 -7 -2 -11.5t-4 -8.5l-256 -462h254q13 0 19 -5t6 -19v-63
q0 -25 -25 -25h-391q-25 0 -25 25v63q0 6 1 10t3 7l257 463h-219q-25 0 -25 25v63q0 14 6 19t19 5h356z" />
    <glyph glyph-name="zcaron" unicode="&#x17e;" horiz-adv-x="446" 
d="M228 638l25 46q5 8 13 16t21 8h64q13 0 17 -7t-4 -17l-73 -99q-8 -11 -17 -18t-22 -7h-48q-14 0 -22.5 7.5t-16.5 18.5l-73 98q-8 10 -4 17t17 7h64q13 0 21 -8t13 -16zM377 498q14 0 19.5 -5t5.5 -19v-58q0 -11 -8 -22l-202 -287h203q14 0 19.5 -5t5.5 -19v-59
q0 -24 -25 -24h-338q-25 0 -25 24v59q0 11 8 22l200 286h-166q-26 0 -26 24v59q0 14 6 19t20 5h303z" />
    <glyph glyph-name="florin" unicode="&#x192;" horiz-adv-x="576" 
d="M474 600q-83 0 -89 -54l-13 -112h72q14 0 19.5 -5t5.5 -19v-56q0 -24 -25 -24h-82l-43 -394q-8 -67 -63.5 -107t-165.5 -40h-9q-13 0 -19 5t-6 19v58q0 25 25 25h20q82 0 88 55l41 379h-61q-24 0 -24 24v55q0 25 24 25h72l13 126q7 68 63 108t167 40h10q25 0 25 -25v-58
q0 -25 -25 -25h-20z" />
    <glyph glyph-name="circumflex" unicode="&#x2c6;" horiz-adv-x="354" 
d="M152 585q-5 -8 -13 -16.5t-21 -8.5h-64q-13 0 -17 7t4 18l73 98q8 11 16.5 18t22.5 7h48q13 0 22 -7t17 -18l73 -98q8 -11 4 -18t-17 -7h-64q-13 0 -21 7.5t-13 17.5l-25 45z" />
    <glyph glyph-name="tilde" unicode="&#x2dc;" horiz-adv-x="408" 
d="M143 607q-10 0 -13.5 -5.5t-5.5 -18.5l-1 -6q-2 -13 -8 -17.5t-18 -4.5h-44q-13 0 -17.5 8t-2.5 21l4 42q4 38 29 57.5t58 19.5t59 -13l42 -20q11 -5 20.5 -10t17.5 -5q19 0 19 24v5q0 13 7.5 17.5t19.5 4.5h43q14 0 18 -7.5t3 -21.5l-3 -39q-3 -40 -27 -59t-55 -19
q-20 0 -35 3.5t-29 9.5l-43 19q-12 5 -21.5 10t-16.5 5z" />
    <glyph glyph-name="endash" unicode="&#x2013;" horiz-adv-x="533" 
d="M449 342q13 0 19 -5t6 -19v-59q0 -24 -25 -24h-365q-25 0 -25 24v59q0 14 6 19t19 5h365z" />
    <glyph glyph-name="emdash" unicode="&#x2014;" horiz-adv-x="843" 
d="M759 342q14 0 19.5 -5t5.5 -19v-59q0 -24 -25 -24h-675q-25 0 -25 24v59q0 14 6 19t19 5h675z" />
    <glyph glyph-name="quoteleft" unicode="&#x2018;" horiz-adv-x="266" 
d="M187 530q0 -14 -5 -19.5t-19 -5.5h-86q-23 0 -23 25v74q0 113 144 148q13 3 19.5 0t11.5 -16l20 -56q8 -23 -16 -31q-27 -9 -36.5 -21t-9.5 -31v-67z" />
    <glyph glyph-name="quoteright" unicode="&#x2019;" horiz-adv-x="266" 
d="M79 727q0 14 5 19.5t19 5.5h86q23 0 23 -25v-74q0 -114 -144 -148q-13 -3 -19.5 0t-11.5 16l-20 56q-8 23 16 31q27 9 36.5 21t9.5 31v67z" />
    <glyph glyph-name="quotesinglbase" unicode="&#x201a;" horiz-adv-x="266" 
d="M79 106q0 14 5 19.5t19 5.5h86q23 0 23 -25v-74q0 -114 -144 -148q-13 -3 -19.5 0t-11.5 16l-20 56q-8 23 16 31q27 9 36.5 21t9.5 31v67z" />
    <glyph glyph-name="quotedblleft" unicode="&#x201c;" horiz-adv-x="484" 
d="M405 530q0 -14 -5 -19.5t-19 -5.5h-86q-23 0 -23 25v74q0 113 144 148q13 3 19.5 0t11.5 -16l20 -56q8 -23 -16 -31q-27 -9 -36.5 -21t-9.5 -31v-67zM187 530q0 -14 -5 -19.5t-19 -5.5h-86q-23 0 -23 25v74q0 113 144 148q13 3 19.5 0t11.5 -16l20 -56q8 -23 -16 -31
q-27 -9 -36.5 -21t-9.5 -31v-67z" />
    <glyph glyph-name="quotedblright" unicode="&#x201d;" horiz-adv-x="484" 
d="M297 727q0 14 5 19.5t19 5.5h86q23 0 23 -25v-74q0 -114 -144 -148q-13 -3 -19.5 0t-11.5 16l-20 56q-8 23 16 31q27 9 36.5 21t9.5 31v67zM79 727q0 14 5 19.5t19 5.5h86q23 0 23 -25v-74q0 -114 -144 -148q-13 -3 -19.5 0t-11.5 16l-20 56q-8 23 16 31q27 9 36.5 21
t9.5 31v67z" />
    <glyph glyph-name="quotedblbase" unicode="&#x201e;" horiz-adv-x="484" 
d="M297 106q0 14 5 19.5t19 5.5h86q23 0 23 -25v-74q0 -114 -144 -148q-13 -3 -19.5 0t-11.5 16l-20 56q-8 23 16 31q27 9 36.5 21t9.5 31v67zM79 106q0 14 5 19.5t19 5.5h86q23 0 23 -25v-74q0 -114 -144 -148q-13 -3 -19.5 0t-11.5 16l-20 56q-8 23 16 31q27 9 36.5 21
t9.5 31v67z" />
    <glyph glyph-name="dagger" unicode="&#x2020;" horiz-adv-x="678" 
d="M405 26q0 -26 -23 -26h-84q-24 0 -24 26v647q0 26 24 26h84q23 0 23 -26v-647zM222 514q25 0 25 -23v-60q0 -25 -25 -25h-127q-25 0 -25 25v60q0 23 25 23h127zM584 514q25 0 25 -23v-60q0 -25 -25 -25h-126q-26 0 -26 25v60q0 23 26 23h126z" />
    <glyph glyph-name="daggerdbl" unicode="&#x2021;" horiz-adv-x="678" 
d="M405 26q0 -26 -23 -26h-84q-24 0 -24 26v647q0 26 24 26h84q23 0 23 -26v-647zM222 514q25 0 25 -23v-60q0 -25 -25 -25h-127q-25 0 -25 25v60q0 23 25 23h127zM584 514q25 0 25 -23v-60q0 -25 -25 -25h-126q-26 0 -26 25v60q0 23 26 23h126zM222 290q13 0 19 -5t6 -19
v-59q0 -25 -25 -25h-127q-25 0 -25 25v59q0 14 5.5 19t19.5 5h127zM584 290q13 0 19 -5t6 -19v-59q0 -25 -25 -25h-126q-26 0 -26 25v59q0 14 6 19t20 5h126z" />
    <glyph glyph-name="bullet" unicode="&#x2022;" horiz-adv-x="273" 
d="M203 199q0 -25 -23 -25h-86q-24 0 -24 25v145q0 26 24 26h86q23 0 23 -26v-145z" />
    <glyph glyph-name="ellipsis" unicode="&#x2026;" horiz-adv-x="745" 
d="M192 25q0 -14 -5 -19.5t-19 -5.5h-85q-25 0 -25 25v81q0 25 25 25h85q14 0 19 -5.5t5 -19.5v-81zM687 25q0 -14 -5 -19.5t-19 -5.5h-85q-25 0 -25 25v81q0 25 25 25h85q14 0 19 -5.5t5 -19.5v-81zM440 25q0 -14 -5 -19.5t-19 -5.5h-85q-25 0 -25 25v81q0 25 25 25h85
q14 0 19 -5.5t5 -19.5v-81z" />
    <glyph glyph-name="perthousand" unicode="&#x2030;" horiz-adv-x="1234" 
d="M67 576q0 51 36 81.5t120 30.5t120 -30.5t36 -81.5v-98q0 -51 -36 -81.5t-120 -30.5t-120 30.5t-36 81.5v98zM272 572q0 17 -13 23.5t-36 6.5t-36 -6.5t-13 -23.5v-90q0 -31 49 -31t49 31v90zM694 197q0 30 -48 30q-49 0 -49 -30v-90q0 -17 13 -24t36 -7t35.5 7t12.5 24
v90zM490 200q0 51 36 81.5t120 30.5t120 -30.5t36 -81.5v-98q0 -51 -36 -81.5t-120 -30.5t-120 30.5t-36 81.5v98zM1060 197q0 30 -49 30q-48 0 -48 -30v-90q0 -17 12.5 -24t35.5 -7t36 7t13 24v90zM855 200q0 51 36.5 81.5t120.5 30.5q83 0 119 -30.5t36 -81.5v-98
q0 -51 -36 -81.5t-119 -30.5q-84 0 -120.5 30.5t-36.5 81.5v98zM335 26q-7 -14 -14.5 -20t-21.5 -6h-70q-11 0 -13.5 9t1.5 17l321 628q5 11 13.5 18.5t22.5 7.5h69q12 0 14.5 -7.5t-2.5 -18.5z" />
    <glyph glyph-name="guilsinglleft" unicode="&#x2039;" horiz-adv-x="363" 
d="M167 245l106 -73q10 -7 18 -14.5t8 -20.5v-83q0 -13 -8.5 -17.5t-17.5 1.5l-186 133q-8 6 -15.5 14t-7.5 20v81q0 12 7.5 19.5t15.5 13.5l186 134q10 7 18 2t8 -18v-83q0 -12 -7.5 -19.5t-18.5 -15.5z" />
    <glyph glyph-name="guilsinglright" unicode="&#x203a;" horiz-adv-x="363" 
d="M90 319q-11 8 -18.5 15.5t-7.5 19.5v83q0 13 8 18t18 -2l186 -134q8 -6 15.5 -13.5t7.5 -19.5v-81q0 -12 -7.5 -20t-15.5 -14l-186 -133q-9 -6 -17.5 -1.5t-8.5 17.5v83q0 13 8 20.5t18 14.5l106 73z" />
    <glyph glyph-name="Euro" unicode="&#x20ac;" horiz-adv-x="660" 
d="M123 311v55h-31q-25 0 -25 24v35q0 14 6 19t19 5h31v76q0 31 11.5 60.5t38.5 52.5t72 36.5t113 13.5t113 -13.5t72 -36.5t38.5 -52.5t11.5 -60.5v-48q0 -25 -23 -25h-83q-25 0 -25 25v24q0 75 -102 75q-101 0 -101 -75v-52h98q14 0 19.5 -5t5.5 -19v-35q0 -24 -25 -24
h-98v-55h98q25 0 25 -23v-35q0 -25 -25 -25h-98v-49q0 -75 101 -75q102 0 102 75v38q0 25 25 25h83q23 0 23 -25v-62q0 -32 -11.5 -61t-38.5 -52t-72 -36.5t-113 -13.5t-113 13.5t-72 36.5t-38.5 52t-11.5 61v73h-31q-25 0 -25 25v35q0 23 25 23h31z" />
    <glyph glyph-name="trademark" unicode="&#x2122;" horiz-adv-x="921" 
d="M851 293q0 -21 -20 -21h-66q-20 0 -20 21v184q-1 -2 -4.5 -13t-5.5 -15l-43 -95q-5 -9 -10.5 -14.5t-16.5 -5.5h-47q-11 0 -17 5.5t-11 14.5l-46 97q-5 10 -7 19t-3 12v-189q0 -21 -20 -21h-62q-21 0 -21 21v366q0 21 21 21h62q13 0 18 -9l94 -183q2 -5 5 -11t5 -11
q3 -6 5 -12q1 6 4 11q2 5 4.5 10.5t5.5 10.5l91 185q4 9 19 9h66q20 0 20 -21v-366zM365 680q21 0 21 -19v-53q0 -20 -21 -20h-81v-295q0 -21 -20 -21h-71q-20 0 -20 21v295h-82q-12 0 -16.5 4.5t-4.5 15.5v53q0 11 4.5 15t16.5 4h274z" />
  </font>
</defs>
</svg>
